<?xml version="1.0" encoding="UTF-8"?>
<svg width="1440px" height="510px" viewBox="0 0 1440 510" version="1.1" xmlns="http://www.w3.org/2000/svg" xmlns:xlink="http://www.w3.org/1999/xlink">
    <title>background</title>
    <defs>
        <rect id="path-1" x="0" y="0" width="1440" height="510"></rect>
    </defs>
    <g id="Desktop" stroke="none" stroke-width="1" fill="none" fill-rule="evenodd">
        <g id="Pricing-WIX" transform="translate(0.000000, -95.000000)">
            <g id="background" transform="translate(0.000000, 95.000000)">
                <mask id="mask-2" fill="white">
                    <use xlink:href="#path-1"></use>
                </mask>
                <use id="Mask" fill="#DDE5E0" xlink:href="#path-1"></use>
                <g id="Group-3" mask="url(#mask-2)" stroke="#A6B5B1" stroke-opacity="0.3" stroke-width="0.6">
                    <g transform="translate(-175.000000, -916.000000)">
                        <path d="M389.314974,845.989345 L453.651816,882.513132 L389.314974,845.989345 Z M389.314974,767.552646 L389.314974,845.900592 L321.667622,881.674187 L389.314974,920.39024 L389.314974,767.552646 Z M259.2,845.989345 L389.314974,920.39024 L389.416325,992.970648 L453.159454,955.66423 L453.159454,806.068098 L518.947368,767.510485 L453.330504,730.22555 L321.440609,806.670211 L259.2,768.543261 L259.2,845.989345 Z M452.999184,806.187245 L389.314974,767.552646 L321.440609,806.670211 L321.667622,881.674187 L389.314974,920.39024 L452.999184,882.051947 L452.999184,806.187245 Z M518.914974,917.377066 L389.4,992.970648 L259.2,918.56423 L259.2,768.543261 L389.416325,692.4 L518.914974,767.552646 L518.914974,917.377066 Z" id="Stroke-1-Copy-9"></path>
                        <path d="M130.114974,925.189345 L194.451816,961.713132 L130.114974,925.189345 Z M130.114974,846.752646 L130.114974,925.100592 L62.4676223,960.874187 L130.114974,999.59024 L130.114974,846.752646 Z M1.02318154e-13,925.189345 L130.114974,999.59024 L130.216325,1072.17065 L193.959454,1034.86423 L193.959454,885.268098 L259.747368,846.710485 L194.130504,809.42555 L62.2406085,885.870211 L1.02318154e-13,847.743261 L1.02318154e-13,925.189345 Z M193.799184,885.387245 L130.114974,846.752646 L62.2406085,885.870211 L62.4676223,960.874187 L130.114974,999.59024 L193.799184,961.251947 L193.799184,885.387245 Z M259.714974,996.577066 L130.2,1072.17065 L1.02318154e-13,997.76423 L1.02318154e-13,847.743261 L130.216325,771.6 L259.714974,846.752646 L259.714974,996.577066 Z" id="Stroke-1-Copy-10"></path>
                        <path d="M1426.11497,831.589345 L1490.45182,868.113132 L1426.11497,831.589345 Z M1426.11497,753.152646 L1426.11497,831.500592 L1358.46762,867.274187 L1426.11497,905.99024 L1426.11497,753.152646 Z M1296,831.589345 L1426.11497,905.99024 L1426.21633,978.570648 L1489.95945,941.26423 L1489.95945,791.668098 L1555.74737,753.110485 L1490.1305,715.82555 L1358.24061,792.270211 L1296,754.143261 L1296,831.589345 Z M1489.79918,791.787245 L1426.11497,753.152646 L1358.24061,792.270211 L1358.46762,867.274187 L1426.11497,905.99024 L1489.79918,867.651947 L1489.79918,791.787245 Z M1555.71497,902.977066 L1426.2,978.570648 L1296,904.16423 L1296,754.143261 L1426.21633,678 L1555.71497,753.152646 L1555.71497,902.977066 Z" id="Stroke-1-Copy-5"></path>
                        <path d="M648.514974,1067.98935 L712.851816,1104.51313 L648.514974,1067.98935 Z M648.514974,989.552646 L648.514974,1067.90059 L580.867622,1103.67419 L648.514974,1142.39024 L648.514974,989.552646 Z M518.4,1067.98935 L648.514974,1142.39024 L648.616325,1214.97065 L712.359454,1177.66423 L712.359454,1028.0681 L778.147368,989.510485 L712.530504,952.22555 L580.640609,1028.67021 L518.4,990.543261 L518.4,1067.98935 Z M712.199184,1028.18724 L648.514974,989.552646 L580.640609,1028.67021 L580.867622,1103.67419 L648.514974,1142.39024 L712.199184,1104.05195 L712.199184,1028.18724 Z M778.114974,1139.37707 L648.6,1214.97065 L518.4,1140.56423 L518.4,990.543261 L648.616325,914.4 L778.114974,989.552646 L778.114974,1139.37707 Z" id="Stroke-1-Copy-8"></path>
                        <path d="M1166.91497,909.589345 L1231.25182,946.113132 L1166.91497,909.589345 Z M1166.91497,831.152646 L1166.91497,909.500592 L1099.26762,945.274187 L1166.91497,983.99024 L1166.91497,831.152646 Z M1036.8,909.589345 L1166.91497,983.99024 L1167.01633,1056.57065 L1230.75945,1019.26423 L1230.75945,869.668098 L1296.54737,831.110485 L1230.9305,793.82555 L1099.04061,870.270211 L1036.8,832.143261 L1036.8,909.589345 Z M1230.59918,869.787245 L1166.91497,831.152646 L1099.04061,870.270211 L1099.26762,945.274187 L1166.91497,983.99024 L1230.59918,945.651947 L1230.59918,869.787245 Z M1296.51497,980.977066 L1167,1056.57065 L1036.8,982.16423 L1036.8,832.143261 L1167.01633,756 L1296.51497,831.152646 L1296.51497,980.977066 Z" id="Stroke-1-Copy-6"></path>
                        <path d="M389.314974,1145.98935 L453.651816,1182.51313 L389.314974,1145.98935 Z M389.314974,1067.55265 L389.314974,1145.90059 L321.667622,1181.67419 L389.314974,1220.39024 L389.314974,1067.55265 Z M259.2,1145.98935 L389.314974,1220.39024 L389.416325,1292.97065 L453.159454,1255.66423 L453.159454,1106.0681 L518.947368,1067.51048 L453.330504,1030.22555 L321.440609,1106.67021 L259.2,1068.54326 L259.2,1145.98935 Z M452.999184,1106.18724 L389.314974,1067.55265 L321.440609,1106.67021 L321.667622,1181.67419 L389.314974,1220.39024 L452.999184,1182.05195 L452.999184,1106.18724 Z M518.914974,1217.37707 L389.4,1292.97065 L259.2,1218.56423 L259.2,1068.54326 L389.416325,992.4 L518.914974,1067.55265 L518.914974,1217.37707 Z" id="Stroke-1-Copy-9"></path>
                        <path d="M907.714974,988.789345 L972.051816,1025.31313 L907.714974,988.789345 Z M907.714974,910.352646 L907.714974,988.700592 L840.067622,1024.47419 L907.714974,1063.19024 L907.714974,910.352646 Z M777.6,988.789345 L907.714974,1063.19024 L907.816325,1135.77065 L971.559454,1098.46423 L971.559454,948.868098 L1037.34737,910.310485 L971.730504,873.02555 L839.840609,949.470211 L777.6,911.343261 L777.6,988.789345 Z M971.399184,948.987245 L907.714974,910.352646 L839.840609,949.470211 L840.067622,1024.47419 L907.714974,1063.19024 L971.399184,1024.85195 L971.399184,948.987245 Z M1037.31497,1060.17707 L907.8,1135.77065 L777.6,1061.36423 L777.6,911.343261 L907.816325,835.2 L1037.31497,910.352646 L1037.31497,1060.17707 Z" id="Stroke-1-Copy-7"></path>
                        <path d="M130.114974,1225.18935 L194.451816,1261.71313 L130.114974,1225.18935 Z M130.114974,1146.75265 L130.114974,1225.10059 L62.4676223,1260.87419 L130.114974,1299.59024 L130.114974,1146.75265 Z M1.02318154e-13,1225.18935 L130.114974,1299.59024 L130.216325,1372.17065 L193.959454,1334.86423 L193.959454,1185.2681 L259.747368,1146.71048 L194.130504,1109.42555 L62.2406085,1185.87021 L1.02318154e-13,1147.74326 L1.02318154e-13,1225.18935 Z M193.799184,1185.38724 L130.114974,1146.75265 L62.2406085,1185.87021 L62.4676223,1260.87419 L130.114974,1299.59024 L193.799184,1261.25195 L193.799184,1185.38724 Z M259.714974,1296.57707 L130.2,1372.17065 L1.02318154e-13,1297.76423 L1.02318154e-13,1147.74326 L130.216325,1071.6 L259.714974,1146.75265 L259.714974,1296.57707 Z" id="Stroke-1-Copy-10"></path>
                        <path d="M1685.31497,1054.78935 L1749.65182,1091.31313 L1685.31497,1054.78935 Z M1685.31497,976.352646 L1685.31497,1054.70059 L1617.66762,1090.47419 L1685.31497,1129.19024 L1685.31497,976.352646 Z M1555.2,1054.78935 L1685.31497,1129.19024 L1685.41633,1201.77065 L1749.15945,1164.46423 L1749.15945,1014.8681 L1814.94737,976.310485 L1749.3305,939.02555 L1617.44061,1015.47021 L1555.2,977.343261 L1555.2,1054.78935 Z M1748.99918,1014.98724 L1685.31497,976.352646 L1617.44061,1015.47021 L1617.66762,1090.47419 L1685.31497,1129.19024 L1748.99918,1090.85195 L1748.99918,1014.98724 Z M1814.91497,1126.17707 L1685.4,1201.77065 L1555.2,1127.36423 L1555.2,977.343261 L1685.41633,901.2 L1814.91497,976.352646 L1814.91497,1126.17707 Z" id="Stroke-1-Copy-4"></path>
                        <path d="M1426.11497,1133.98935 L1490.45182,1170.51313 L1426.11497,1133.98935 Z M1426.11497,1055.55265 L1426.11497,1133.90059 L1358.46762,1169.67419 L1426.11497,1208.39024 L1426.11497,1055.55265 Z M1296,1133.98935 L1426.11497,1208.39024 L1426.21633,1280.97065 L1489.95945,1243.66423 L1489.95945,1094.0681 L1555.74737,1055.51048 L1490.1305,1018.22555 L1358.24061,1094.67021 L1296,1056.54326 L1296,1133.98935 Z M1489.79918,1094.18724 L1426.11497,1055.55265 L1358.24061,1094.67021 L1358.46762,1169.67419 L1426.11497,1208.39024 L1489.79918,1170.05195 L1489.79918,1094.18724 Z M1555.71497,1205.37707 L1426.2,1280.97065 L1296,1206.56423 L1296,1056.54326 L1426.21633,980.4 L1555.71497,1055.55265 L1555.71497,1205.37707 Z" id="Stroke-1-Copy-5"></path>
                        <path d="M648.514974,1370.38935 L712.851816,1406.91313 L648.514974,1370.38935 Z M648.514974,1291.95265 L648.514974,1370.30059 L580.867622,1406.07419 L648.514974,1444.79024 L648.514974,1291.95265 Z M518.4,1370.38935 L648.514974,1444.79024 L648.616325,1517.37065 L712.359454,1480.06423 L712.359454,1330.4681 L778.147368,1291.91048 L712.530504,1254.62555 L580.640609,1331.07021 L518.4,1292.94326 L518.4,1370.38935 Z M712.199184,1330.58724 L648.514974,1291.95265 L580.640609,1331.07021 L580.867622,1406.07419 L648.514974,1444.79024 L712.199184,1406.45195 L712.199184,1330.58724 Z M778.114974,1441.77707 L648.6,1517.37065 L518.4,1442.96423 L518.4,1292.94326 L648.616325,1216.8 L778.114974,1291.95265 L778.114974,1441.77707 Z" id="Stroke-1-Copy-8"></path>
                        <path d="M1166.91497,1211.98935 L1231.25182,1248.51313 L1166.91497,1211.98935 Z M1166.91497,1133.55265 L1166.91497,1211.90059 L1099.26762,1247.67419 L1166.91497,1286.39024 L1166.91497,1133.55265 Z M1036.8,1211.98935 L1166.91497,1286.39024 L1167.01633,1358.97065 L1230.75945,1321.66423 L1230.75945,1172.0681 L1296.54737,1133.51048 L1230.9305,1096.22555 L1099.04061,1172.67021 L1036.8,1134.54326 L1036.8,1211.98935 Z M1230.59918,1172.18724 L1166.91497,1133.55265 L1099.04061,1172.67021 L1099.26762,1247.67419 L1166.91497,1286.39024 L1230.59918,1248.05195 L1230.59918,1172.18724 Z M1296.51497,1283.37707 L1167,1358.97065 L1036.8,1284.56423 L1036.8,1134.54326 L1167.01633,1058.4 L1296.51497,1133.55265 L1296.51497,1283.37707 Z" id="Stroke-1-Copy-6"></path>
                        <path d="M389.314974,1448.38935 L453.651816,1484.91313 L389.314974,1448.38935 Z M389.314974,1369.95265 L389.314974,1448.30059 L321.667622,1484.07419 L389.314974,1522.79024 L389.314974,1369.95265 Z M259.2,1448.38935 L389.314974,1522.79024 L389.416325,1595.37065 L453.159454,1558.06423 L453.159454,1408.4681 L518.947368,1369.91048 L453.330504,1332.62555 L321.440609,1409.07021 L259.2,1370.94326 L259.2,1448.38935 Z M452.999184,1408.58724 L389.314974,1369.95265 L321.440609,1409.07021 L321.667622,1484.07419 L389.314974,1522.79024 L452.999184,1484.45195 L452.999184,1408.58724 Z M518.914974,1519.77707 L389.4,1595.37065 L259.2,1520.96423 L259.2,1370.94326 L389.416325,1294.8 L518.914974,1369.95265 L518.914974,1519.77707 Z" id="Stroke-1-Copy-9"></path>
                        <path d="M907.714974,1291.18935 L972.051816,1327.71313 L907.714974,1291.18935 Z M907.714974,1212.75265 L907.714974,1291.10059 L840.067622,1326.87419 L907.714974,1365.59024 L907.714974,1212.75265 Z M777.6,1291.18935 L907.714974,1365.59024 L907.816325,1438.17065 L971.559454,1400.86423 L971.559454,1251.2681 L1037.34737,1212.71048 L971.730504,1175.42555 L839.840609,1251.87021 L777.6,1213.74326 L777.6,1291.18935 Z M971.399184,1251.38724 L907.714974,1212.75265 L839.840609,1251.87021 L840.067622,1326.87419 L907.714974,1365.59024 L971.399184,1327.25195 L971.399184,1251.38724 Z M1037.31497,1362.57707 L907.8,1438.17065 L777.6,1363.76423 L777.6,1213.74326 L907.816325,1137.6 L1037.31497,1212.75265 L1037.31497,1362.57707 Z" id="Stroke-1-Copy-7"></path>
                        <path d="M130.114974,1527.58935 L194.451816,1564.11313 L130.114974,1527.58935 Z M130.114974,1449.15265 L130.114974,1527.50059 L62.4676223,1563.27419 L130.114974,1601.99024 L130.114974,1449.15265 Z M1.02318154e-13,1527.58935 L130.114974,1601.99024 L130.216325,1674.57065 L193.959454,1637.26423 L193.959454,1487.6681 L259.747368,1449.11048 L194.130504,1411.82555 L62.2406085,1488.27021 L1.02318154e-13,1450.14326 L1.02318154e-13,1527.58935 Z M193.799184,1487.78724 L130.114974,1449.15265 L62.2406085,1488.27021 L62.4676223,1563.27419 L130.114974,1601.99024 L193.799184,1563.65195 L193.799184,1487.78724 Z M259.714974,1598.97707 L130.2,1674.57065 L1.02318154e-13,1600.16423 L1.02318154e-13,1450.14326 L130.216325,1374 L259.714974,1449.15265 L259.714974,1598.97707 Z" id="Stroke-1-Copy-10"></path>
                        <path d="M1685.31497,1354.78935 L1749.65182,1391.31313 L1685.31497,1354.78935 Z M1685.31497,1276.35265 L1685.31497,1354.70059 L1617.66762,1390.47419 L1685.31497,1429.19024 L1685.31497,1276.35265 Z M1555.2,1354.78935 L1685.31497,1429.19024 L1685.41633,1501.77065 L1749.15945,1464.46423 L1749.15945,1314.8681 L1814.94737,1276.31048 L1749.3305,1239.02555 L1617.44061,1315.47021 L1555.2,1277.34326 L1555.2,1354.78935 Z M1748.99918,1314.98724 L1685.31497,1276.35265 L1617.44061,1315.47021 L1617.66762,1390.47419 L1685.31497,1429.19024 L1748.99918,1390.85195 L1748.99918,1314.98724 Z M1814.91497,1426.17707 L1685.4,1501.77065 L1555.2,1427.36423 L1555.2,1277.34326 L1685.41633,1201.2 L1814.91497,1276.35265 L1814.91497,1426.17707 Z" id="Stroke-1-Copy-4"></path>
                        <path d="M1426.11497,1433.98935 L1490.45182,1470.51313 L1426.11497,1433.98935 Z M1426.11497,1355.55265 L1426.11497,1433.90059 L1358.46762,1469.67419 L1426.11497,1508.39024 L1426.11497,1355.55265 Z M1296,1433.98935 L1426.11497,1508.39024 L1426.21633,1580.97065 L1489.95945,1543.66423 L1489.95945,1394.0681 L1555.74737,1355.51048 L1490.1305,1318.22555 L1358.24061,1394.67021 L1296,1356.54326 L1296,1433.98935 Z M1489.79918,1394.18724 L1426.11497,1355.55265 L1358.24061,1394.67021 L1358.46762,1469.67419 L1426.11497,1508.39024 L1489.79918,1470.05195 L1489.79918,1394.18724 Z M1555.71497,1505.37707 L1426.2,1580.97065 L1296,1506.56423 L1296,1356.54326 L1426.21633,1280.4 L1555.71497,1355.55265 L1555.71497,1505.37707 Z" id="Stroke-1-Copy-5"></path>
                        <path d="M1166.91497,1511.98935 L1231.25182,1548.51313 L1166.91497,1511.98935 Z M1166.91497,1433.55265 L1166.91497,1511.90059 L1099.26762,1547.67419 L1166.91497,1586.39024 L1166.91497,1433.55265 Z M1036.8,1511.98935 L1166.91497,1586.39024 L1167.01633,1658.97065 L1230.75945,1621.66423 L1230.75945,1472.0681 L1296.54737,1433.51048 L1230.9305,1396.22555 L1099.04061,1472.67021 L1036.8,1434.54326 L1036.8,1511.98935 Z M1230.59918,1472.18724 L1166.91497,1433.55265 L1099.04061,1472.67021 L1099.26762,1547.67419 L1166.91497,1586.39024 L1230.59918,1548.05195 L1230.59918,1472.18724 Z M1296.51497,1583.37707 L1167,1658.97065 L1036.8,1584.56423 L1036.8,1434.54326 L1167.01633,1358.4 L1296.51497,1433.55265 L1296.51497,1583.37707 Z" id="Stroke-1-Copy-6"></path>
                    </g>
                </g>
            </g>
        </g>
    </g>
</svg>