<svg xmlns="http://www.w3.org/2000/svg" xmlns:xlink="http://www.w3.org/1999/xlink"><defs><style>
    .sprite-symbol-usage {display: none;}
    .sprite-symbol-usage:target {display: inline;}
  </style><symbol viewBox="0 0 17 19" id="Tictok"><path d="M16.52 4.6c0-.09 0-.09-.09-.09-.21 0-.42-.02-.63-.06-.75-.12-3.19-1.42-3.61-3.56 0-.04-.1-.57-.1-.8 0-.1 0-.1-.1-.1H9.06c-.19 0-.17-.02-.17.17v12.68c0 .16 0 .32-.03.47-.14.82-.55 1.46-1.25 1.9-.6.38-1.25.49-1.95.35-.22-.04-.42-.13-.63-.21l-.05-.05c-.07-.06-.15-.11-.22-.16-.88-.62-1.3-1.49-1.18-2.58.13-1.1.75-1.85 1.77-2.23.3-.11.63-.16.95-.14.21.01.42.04.62.1.07.02.11 0 .11-.08v-.08c0-.76-.03-2.42-.03-2.42v-.66c0-.06-.03-.07-.08-.08-.39-.05-.77-.06-1.16-.03-.54.04-1.05.15-1.56.34-.8.3-1.51.75-2.12 1.36-.52.52-.93 1.13-1.24 1.81-.29.65-.45 1.34-.5 2.05a5.985 5.985 0 0 0 .26 2.19 5.948 5.948 0 0 0 1.98 2.91c.1.08.19.16.3.21s.1.09.15.13c.15.12.32.22.49.31 1.06.54 2.18.75 3.36.61 1.53-.19 2.8-.88 3.81-2.07.94-1.12 1.4-2.44 1.41-3.91.01-2.1 0-4.21 0-6.31 0-.05-.03-.12.03-.15.04-.02.09.04.13.06.77.51 1.6.89 2.49 1.1.52.12 1.05.2 1.59.19.17 0 .19 0 .19-.18 0-.75-.04-2.79-.04-2.99" fill="currentColor" fill-rule="evenodd" /></symbol><symbol fill="currentColor" viewBox="0 0 17.38 9.73" id="arrow-faq"><path d="M8.48 9.73 0 1.45 1.4.02l7.11 6.95L16.02 0l1.36 1.47-8.9 8.26z" /></symbol><symbol viewBox="0 0 746 512" id="arrow-left"><path fill="currentColor" d="M9.92 231.49a34.21 34.21 0 0 0 0 48.73l221.86 221.86a35.23 35.23 0 0 0 49 0 34.52 34.52 0 0 0 0-49L118.15 290.42h592.47a34.57 34.57 0 1 0 0-69.13H118.15L280.79 58.65a34.55 34.55 0 0 0 0-49 35.09 35.09 0 0 0-49 0L9.92 231.49Z" /></symbol><symbol fill="currentcolor" viewBox="0 0 746 512" id="arrow-right"><path fill="currentColor" d="M734.99 231.491 513.133 9.634c-6.317-6.174-14.969-9.983-24.509-9.983S470.432 3.46 464.108 9.64l.007-.007c-6.302 6.259-10.202 14.929-10.202 24.509s3.901 18.251 10.201 24.507l162.64 162.64H34.284c-19.091 0-34.568 15.476-34.568 34.568s15.476 34.568 34.568 34.568h592.469L464.114 453.063c-6.302 6.259-10.202 14.928-10.202 24.509s3.901 18.25 10.201 24.507l.002.002c6.334 6.135 14.981 9.916 24.509 9.916s18.175-3.781 24.518-9.925l-.01.009 221.857-221.857c6.3-6.207 10.203-14.832 10.203-24.368s-3.903-18.161-10.199-24.363l-.004-.004z" /></symbol><symbol fill="currentcolor" viewBox="0 0 4 7.33" id="arrow_link"><path class="cls-1" d="M4 3.67 0 7.33V0l4 3.67z" /></symbol><symbol viewBox="0 0 16.5 16.5" id="check-circle"><path d="M8.25 15.75a7.5 7.5 0 1 0 0-15 7.5 7.5 0 0 0 0 15Z" fill="currentColor" fill-rule="evenodd" /><path d="m12.022 5.585-4.247 5.652L4.953 8.01" fill="none" stroke="#FFF" stroke-width="1.5" /></symbol><symbol viewBox="0 0 9 19" id="facebook"><path d="M2.74 19h3.53V9.88h2.46l.26-3.05H6.26V5.09c0-.72.14-1 .82-1h1.91V.92H6.55C3.92.92 2.74 2.11 2.74 4.4v2.43H.91v3.09h1.84V19Z" fill="currentColor" fill-rule="evenodd" /></symbol><symbol fill="currentcolor" viewBox="0 0 14 14" id="file"><path class="cls-1" d="M.99 13.01c-.64-.64-.99-1.49-.99-2.4s.35-1.76.99-2.4l4.55-4.55c.79-.79 2.08-.79 2.88 0 .38.38.6.9.6 1.44s-.21 1.05-.6 1.44l-4.25 4.25c-.23.23-.61.23-.84 0s-.23-.61 0-.84L7.58 5.7c.16-.16.25-.37.25-.6s-.09-.44-.25-.6c-.16-.16-.37-.25-.6-.25s-.44.09-.6.25L1.84 9.05a2.209 2.209 0 0 0 1.56 3.77c.59 0 1.14-.23 1.56-.65l7.21-7.21c.42-.42.65-.97.65-1.56s-.23-1.14-.65-1.56c-.42-.42-.97-.65-1.56-.65s-1.14.23-1.56.65c-.23.23-.61.23-.84 0a.598.598 0 0 1 0-.84C8.85.36 9.7.01 10.61.01s1.76.35 2.4.99c.64.64.99 1.49.99 2.4s-.35 1.76-.99 2.4L5.8 13.01c-.64.64-1.49.99-2.4.99s-1.76-.35-2.4-.99Z" data-name="popup join team" /></symbol><symbol viewBox="0 0 17 18" id="insagram"><path d="M9.68.83c1.36 0 1.67.02 2.39.05.86.04 1.45.18 1.96.38.53.21.98.49 1.43.95.45.46.73.92.93 1.46.2.52.34 1.12.38 2 .03.73.04 1.05.05 2.42v1.93c0 1.38-.02 1.69-.05 2.42-.04.87-.18 1.47-.38 2-.21.54-.48 1-.93 1.46-.45.46-.9.74-1.43.95-.51.2-1.1.34-1.96.38-.76.04-1.06.05-2.6.05H7.99c-1.54 0-1.84-.01-2.6-.05-.86-.04-1.45-.18-1.96-.38-.53-.21-.98-.49-1.43-.95a3.98 3.98 0 0 1-.93-1.46c-.2-.52-.34-1.12-.38-2-.03-.73-.04-1.05-.05-2.42V8.09c0-1.38.02-1.69.05-2.42.04-.87.18-1.47.38-2 .21-.54.48-1 .93-1.46.45-.46.9-.74 1.43-.95.51-.2 1.1-.34 1.96-.38C6.11.85 6.42.83 7.78.83h1.9Zm-.02 1.48H7.79c-1.33 0-1.63.01-2.34.05-.79.04-1.22.17-1.5.28-.38.15-.65.33-.93.62s-.46.56-.61.94c-.11.29-.24.72-.28 1.53-.03.76-.04 1.05-.05 2.58v1.47c0 1.53.01 1.83.05 2.58.04.8.17 1.24.28 1.53.15.38.32.66.61.95.28.29.55.47.93.62.29.11.71.25 1.5.28.18 0 .33.02.48.02h.18c.42.02.88.03 1.89.03h1.45c1.01 0 1.47 0 1.89-.02h.18c.15-.01.3-.02.48-.03.79-.04 1.22-.17 1.5-.28.38-.15.65-.33.93-.62s.46-.56.61-.95c.11-.29.24-.72.28-1.53.03-.76.04-1.05.05-2.58V8.31c0-1.53-.01-1.83-.05-2.58-.04-.8-.17-1.24-.28-1.53-.15-.38-.32-.66-.61-.94-.28-.29-.55-.47-.93-.62-.29-.11-.71-.25-1.5-.28-.71-.03-1.01-.04-2.34-.05Zm-.93 2.52c2.3 0 4.16 1.89 4.16 4.22s-1.86 4.22-4.16 4.22-4.16-1.89-4.16-4.22 1.86-4.22 4.16-4.22Zm0 1.48c-1.49 0-2.7 1.23-2.7 2.74s1.21 2.74 2.7 2.74 2.7-1.23 2.7-2.74-1.21-2.74-2.7-2.74Zm4.32-2.63c.54 0 .97.44.97.99s-.44.99-.97.99-.97-.44-.97-.99.44-.99.97-.99Z" fill="currentColor" fill-rule="evenodd" /></symbol><symbol viewBox="0 0 16 17" id="linkedin"><path d="M.31 16.45h3.17V6.04H.31v10.41Zm3.44-13.7c0-1.06-.84-1.92-1.88-1.92s-1.88.86-1.88 1.92.84 1.92 1.88 1.92 1.88-.86 1.88-1.92Zm4.8 8.23c0-1.46.66-2.34 1.93-2.34 1.17 0 1.73.84 1.73 2.34v5.47h3.16V9.86c0-2.79-1.56-4.14-3.73-4.14S8.55 7.44 8.55 7.44v-1.4H5.5v10.41h3.05v-5.47Z" fill="currentColor" fill-rule="evenodd" /></symbol><symbol viewBox="0 0 28 28" id="linkedinCircle"><g transform="translate(1 1)" fill="none" fill-rule="evenodd"><circle stroke="#8C9894" cx="13" cy="13" r="13" /><path d="M8.219 18h2.27v-7.334H8.22V18Zm2.467-9.647c0-.747-.601-1.353-1.343-1.353S8 7.606 8 8.353s.6 1.353 1.343 1.353c.742 0 1.343-.606 1.343-1.353Zm3.434 5.797c0-1.03.474-1.645 1.383-1.645.835 0 1.236.59 1.236 1.645V18H19v-4.644c0-1.964-1.114-2.913-2.67-2.913a2.558 2.558 0 0 0-2.21 1.211v-.987h-2.18V18h2.18v-3.85Z" fill="#8C9894" /></g></symbol><symbol viewBox="0 0 22.24 22.24" id="plans-check"><path fill="currentColor" d="M8.65 22.24.58 13.01l1.51-1.32 6.44 7.38L18.71 5.52l1.6 1.2L8.65 22.24z" /></symbol><symbol viewBox="0 0 26 26" id="play"><path d="M12.75 0A12.75 12.75 0 1 1 0 12.75 12.75 12.75 0 0 1 12.75 0Zm0 1.5A11.25 11.25 0 1 0 24 12.75 11.25 11.25 0 0 0 12.75 1.5Zm-2.44 5.06 6.4 6-6.4 6Z" fill="currentColor" /></symbol><symbol viewBox="0 0 77 77" id="play-big"><g transform="translate(1 1)" fill="none" fill-rule="evenodd"><rect stroke="#FFF" stroke-width="1.5" fill="#132723" width="75" height="75" rx="37.5" /><path fill="#FFF" d="m44.643 36.905-9.524 8.928V27.976z" /></g></symbol><symbol viewBox="0 0 18 18" id="plyr-airplay"><path d="M16 1H2a1 1 0 0 0-1 1v10a1 1 0 0 0 1 1h3v-2H3V3h12v8h-2v2h3a1 1 0 0 0 1-1V2a1 1 0 0 0-1-1Z" /><path d="M4 17h10l-5-6z" /></symbol><symbol viewBox="0 0 18 18" id="plyr-captions-off"><path d="M1 1c-.6 0-1 .4-1 1v11c0 .6.4 1 1 1h4.6l2.7 2.7c.2.2.4.3.7.3.3 0 .5-.1.7-.3l2.7-2.7H17c.6 0 1-.4 1-1V2c0-.6-.4-1-1-1H1Zm4.52 10.15c1.99 0 3.01-1.32 3.28-2.41l-1.29-.39c-.19.66-.78 1.45-1.99 1.45-1.14 0-2.2-.83-2.2-2.34 0-1.61 1.12-2.37 2.18-2.37 1.23 0 1.78.75 1.95 1.43l1.3-.41C8.47 4.96 7.46 3.76 5.5 3.76c-1.9 0-3.61 1.44-3.61 3.7 0 2.26 1.65 3.69 3.63 3.69Zm7.57 0c1.99 0 3.01-1.32 3.28-2.41l-1.29-.39c-.19.66-.78 1.45-1.99 1.45-1.14 0-2.2-.83-2.2-2.34 0-1.61 1.12-2.37 2.18-2.37 1.23 0 1.78.75 1.95 1.43l1.3-.41c-.28-1.15-1.29-2.35-3.25-2.35-1.9 0-3.61 1.44-3.61 3.7 0 2.26 1.65 3.69 3.63 3.69Z" fill-rule="evenodd" fill-opacity=".5" /></symbol><symbol viewBox="0 0 18 18" id="plyr-captions-on"><path d="M1 1c-.6 0-1 .4-1 1v11c0 .6.4 1 1 1h4.6l2.7 2.7c.2.2.4.3.7.3.3 0 .5-.1.7-.3l2.7-2.7H17c.6 0 1-.4 1-1V2c0-.6-.4-1-1-1H1Zm4.52 10.15c1.99 0 3.01-1.32 3.28-2.41l-1.29-.39c-.19.66-.78 1.45-1.99 1.45-1.14 0-2.2-.83-2.2-2.34 0-1.61 1.12-2.37 2.18-2.37 1.23 0 1.78.75 1.95 1.43l1.3-.41C8.47 4.96 7.46 3.76 5.5 3.76c-1.9 0-3.61 1.44-3.61 3.7 0 2.26 1.65 3.69 3.63 3.69Zm7.57 0c1.99 0 3.01-1.32 3.28-2.41l-1.29-.39c-.19.66-.78 1.45-1.99 1.45-1.14 0-2.2-.83-2.2-2.34 0-1.61 1.12-2.37 2.18-2.37 1.23 0 1.78.75 1.95 1.43l1.3-.41c-.28-1.15-1.29-2.35-3.25-2.35-1.9 0-3.61 1.44-3.61 3.7 0 2.26 1.65 3.69 3.63 3.69Z" fill-rule="evenodd" /></symbol><symbol viewBox="0 0 18 18" id="plyr-download"><path d="M9 13c.3 0 .5-.1.7-.3L15.4 7 14 5.6l-4 4V1H8v8.6l-4-4L2.6 7l5.7 5.7c.2.2.4.3.7.3ZM2 15h14v2H2z" /></symbol><symbol viewBox="0 0 18 18" id="plyr-enter-fullscreen"><path d="M10 3h3.6l-4 4L11 8.4l4-4V8h2V1h-7zM7 9.6l-4 4V10H1v7h7v-2H4.4l4-4z" /></symbol><symbol viewBox="0 0 18 18" id="plyr-exit-fullscreen"><path d="M1 12h3.6l-4 4L2 17.4l4-4V17h2v-7H1zM16 .6l-4 4V1h-2v7h7V6h-3.6l4-4z" /></symbol><symbol viewBox="0 0 18 18" id="plyr-fast-forward"><path d="M7.875 7.171 0 1v16l7.875-6.171V17L18 9 7.875 1z" /></symbol><symbol viewBox="0 0 18 18" id="plyr-logo-vimeo"><path d="M17 5.3c-.1 1.6-1.2 3.7-3.3 6.4-2.2 2.8-4 4.2-5.5 4.2-.9 0-1.7-.9-2.4-2.6C5 10.9 4.4 6 3 6c-.1 0-.5.3-1.2.8l-.8-1c.8-.7 3.5-3.4 4.7-3.5 1.2-.1 2 .7 2.3 2.5.3 2 .8 6.1 1.8 6.1.9 0 2.5-3.4 2.6-4 .1-.9-.3-1.9-2.3-1.1.8-2.6 2.3-3.8 4.5-3.8 1.7.1 2.5 1.2 2.4 3.3Z" /></symbol><symbol viewBox="0 0 18 18" id="plyr-logo-youtube"><path d="M16.8 5.8c-.2-1.3-.8-2.2-2.2-2.4C12.4 3 9 3 9 3s-3.4 0-5.6.4C2 3.6 1.3 4.5 1.2 5.8 1 7.1 1 9 1 9s0 1.9.2 3.2c.2 1.3.8 2.2 2.2 2.4C5.6 15 9 15 9 15s3.4 0 5.6-.4c1.4-.3 2-1.1 2.2-2.4.2-1.3.2-3.2.2-3.2s0-1.9-.2-3.2ZM7 12V6l5 3-5 3Z" /></symbol><symbol viewBox="0 0 18 18" id="plyr-muted"><path d="m12.4 12.5 2.1-2.1 2.1 2.1 1.4-1.4L15.9 9 18 6.9l-1.4-1.4-2.1 2.1-2.1-2.1L11 6.9 13.1 9 11 11.1zM3.786 6.008H.714C.286 6.008 0 6.31 0 6.76v4.512c0 .452.286.752.714.752h3.072l4.071 3.858c.5.3 1.143 0 1.143-.602V2.752c0-.601-.643-.977-1.143-.601L3.786 6.008Z" /></symbol><symbol viewBox="0 0 18 18" id="plyr-pause"><path d="M6 1H3c-.6 0-1 .4-1 1v14c0 .6.4 1 1 1h3c.6 0 1-.4 1-1V2c0-.6-.4-1-1-1ZM12 1c-.6 0-1 .4-1 1v14c0 .6.4 1 1 1h3c.6 0 1-.4 1-1V2c0-.6-.4-1-1-1h-3Z" /></symbol><symbol viewBox="0 0 18 18" id="plyr-pip"><path d="M13.293 3.293 7.022 9.564l1.414 1.414 6.271-6.271L17 7V1h-6z" /><path d="M13 15H3V5h5V3H2a1 1 0 0 0-1 1v12a1 1 0 0 0 1 1h12a1 1 0 0 0 1-1v-6h-2v5Z" /></symbol><symbol viewBox="0 0 13.83 15.81" id="plyr-play"><path d="M0 15.81V0l13.83 7.9ZM2 3.45v8.92L9.8 7.9Z" /></symbol><symbol viewBox="0 0 18 18" id="plyr-restart"><path d="m9.7 1.2.7 6.4 2.1-2.1c1.9 1.9 1.9 5.1 0 7-.9 1-2.2 1.5-3.5 1.5-1.3 0-2.6-.5-3.5-1.5-1.9-1.9-1.9-5.1 0-7 .6-.6 1.4-1.1 2.3-1.3l-.6-1.9C6 2.6 4.9 3.2 4 4.1 1.3 6.8 1.3 11.2 4 14c1.3 1.3 3.1 2 4.9 2 1.9 0 3.6-.7 4.9-2 2.7-2.7 2.7-7.1 0-9.9L16 1.9l-6.3-.7Z" /></symbol><symbol viewBox="0 0 18 18" id="plyr-rewind"><path d="M10.125 1 0 9l10.125 8v-6.171L18 17V1l-7.875 6.171z" /></symbol><symbol viewBox="0 0 18 18" id="plyr-settings"><path d="M16.135 7.784a2 2 0 0 1-1.23-2.969c.322-.536.225-.998-.094-1.316l-.31-.31c-.318-.318-.78-.415-1.316-.094a2 2 0 0 1-2.969-1.23C10.065 1.258 9.669 1 9.219 1h-.438c-.45 0-.845.258-.997.865a2 2 0 0 1-2.969 1.23c-.536-.322-.999-.225-1.317.093l-.31.31c-.318.318-.415.781-.093 1.317a2 2 0 0 1-1.23 2.969C1.26 7.935 1 8.33 1 8.781v.438c0 .45.258.845.865.997a2 2 0 0 1 1.23 2.969c-.322.536-.225.998.094 1.316l.31.31c.319.319.782.415 1.316.094a2 2 0 0 1 2.969 1.23c.151.607.547.865.997.865h.438c.45 0 .845-.258.997-.865a2 2 0 0 1 2.969-1.23c.535.321.997.225 1.316-.094l.31-.31c.318-.318.415-.781.094-1.316a2 2 0 0 1 1.23-2.969c.607-.151.865-.547.865-.997v-.438c0-.451-.26-.846-.865-.997ZM9 12a3 3 0 1 1 0-6 3 3 0 0 1 0 6Z" /></symbol><symbol viewBox="0 0 18 18" id="plyr-volume"><path d="M15.6 3.3c-.4-.4-1-.4-1.4 0-.4.4-.4 1 0 1.4C15.4 5.9 16 7.4 16 9c0 1.6-.6 3.1-1.8 4.3-.4.4-.4 1 0 1.4.2.2.5.3.7.3.3 0 .5-.1.7-.3C17.1 13.2 18 11.2 18 9s-.9-4.2-2.4-5.7Z" /><path d="M11.282 5.282a.909.909 0 0 0 0 1.316c.735.735.995 1.458.995 2.402 0 .936-.425 1.917-.995 2.487a.909.909 0 0 0 0 1.316c.145.145.636.262 1.018.156a.725.725 0 0 0 .298-.156C13.773 11.733 14.13 10.16 14.13 9c0-.17-.002-.34-.011-.51-.053-.992-.319-2.005-1.522-3.208a.909.909 0 0 0-1.316 0ZM3.786 6.008H.714C.286 6.008 0 6.31 0 6.76v4.512c0 .452.286.752.714.752h3.072l4.071 3.858c.5.3 1.143 0 1.143-.602V2.752c0-.601-.643-.977-1.143-.601L3.786 6.008Z" /></symbol><symbol fill="currentcolor" viewBox="0 0 36 36" id="user"><path class="cls-1" d="M6 29.9c1.9-1.28 3.79-2.28 5.69-3.03 1.9-.74 4-1.11 6.31-1.11s4.41.37 6.31 1.11c1.9.74 3.79 1.75 5.69 3.03 1.48-1.55 2.66-3.33 3.54-5.33.88-2 1.32-4.19 1.32-6.56 0-4.69-1.64-8.67-4.91-11.95C26.67 2.78 22.69 1.15 18 1.15S9.33 2.79 6.05 6.06c-3.28 3.28-4.91 7.26-4.91 11.95 0 2.37.44 4.56 1.32 6.56.88 2 2.06 3.78 3.54 5.33Zm11.99-11.33c-1.65 0-3.03-.56-4.15-1.69-1.12-1.13-1.68-2.52-1.68-4.16s.56-3.03 1.69-4.15 2.52-1.68 4.16-1.68 3.03.56 4.15 1.69c1.12 1.13 1.68 2.52 1.68 4.16s-.56 3.03-1.69 4.15-2.52 1.68-4.16 1.68ZM18.03 36c-2.53 0-4.89-.47-7.07-1.4-2.18-.93-4.08-2.22-5.72-3.85s-2.91-3.54-3.84-5.7S0 20.54 0 18.02s.47-4.87 1.4-7.05c.93-2.17 2.22-4.08 3.85-5.72s3.54-2.92 5.7-3.85C13.11.47 15.46 0 17.98 0s4.87.47 7.05 1.4c2.17.93 4.08 2.22 5.72 3.85s2.92 3.54 3.85 5.72c.93 2.17 1.4 4.51 1.4 7.01s-.47 4.89-1.4 7.07c-.93 2.18-2.22 4.08-3.85 5.72a18.1 18.1 0 0 1-5.72 3.84c-2.17.93-4.51 1.4-7.01 1.4Zm-.02-1.14c1.97 0 3.93-.35 5.9-1.06 1.97-.71 3.69-1.73 5.17-3.08-1.48-1.17-3.16-2.1-5.04-2.79s-3.89-1.03-6.03-1.03-4.16.34-6.05 1.01c-1.9.67-3.55 1.61-4.97 2.82 1.45 1.34 3.16 2.37 5.12 3.08 1.97.71 3.93 1.06 5.9 1.06Zm0-17.43c1.34 0 2.46-.45 3.35-1.35.9-.9 1.34-2.02 1.34-3.36s-.45-2.46-1.35-3.35c-.9-.9-2.02-1.34-3.36-1.34s-2.46.45-3.35 1.35c-.9.9-1.34 2.02-1.34 3.36s.45 2.46 1.35 3.35c.9.9 2.02 1.34 3.36 1.34Z" /></symbol></defs><use id="Tictok-usage" xlink:href="#Tictok" class="sprite-symbol-usage" /><use id="arrow-faq-usage" xlink:href="#arrow-faq" class="sprite-symbol-usage" /><use id="arrow-left-usage" xlink:href="#arrow-left" class="sprite-symbol-usage" /><use id="arrow-right-usage" xlink:href="#arrow-right" class="sprite-symbol-usage" /><use id="arrow_link-usage" xlink:href="#arrow_link" class="sprite-symbol-usage" /><use id="check-circle-usage" xlink:href="#check-circle" class="sprite-symbol-usage" /><use id="facebook-usage" xlink:href="#facebook" class="sprite-symbol-usage" /><use id="file-usage" xlink:href="#file" class="sprite-symbol-usage" /><use id="insagram-usage" xlink:href="#insagram" class="sprite-symbol-usage" /><use id="linkedin-usage" xlink:href="#linkedin" class="sprite-symbol-usage" /><use id="linkedinCircle-usage" xlink:href="#linkedinCircle" class="sprite-symbol-usage" /><use id="plans-check-usage" xlink:href="#plans-check" class="sprite-symbol-usage" /><use id="play-usage" xlink:href="#play" class="sprite-symbol-usage" /><use id="play-big-usage" xlink:href="#play-big" class="sprite-symbol-usage" /><use id="plyr-airplay-usage" xlink:href="#plyr-airplay" class="sprite-symbol-usage" /><use id="plyr-captions-off-usage" xlink:href="#plyr-captions-off" class="sprite-symbol-usage" /><use id="plyr-captions-on-usage" xlink:href="#plyr-captions-on" class="sprite-symbol-usage" /><use id="plyr-download-usage" xlink:href="#plyr-download" class="sprite-symbol-usage" /><use id="plyr-enter-fullscreen-usage" xlink:href="#plyr-enter-fullscreen" class="sprite-symbol-usage" /><use id="plyr-exit-fullscreen-usage" xlink:href="#plyr-exit-fullscreen" class="sprite-symbol-usage" /><use id="plyr-fast-forward-usage" xlink:href="#plyr-fast-forward" class="sprite-symbol-usage" /><use id="plyr-logo-vimeo-usage" xlink:href="#plyr-logo-vimeo" class="sprite-symbol-usage" /><use id="plyr-logo-youtube-usage" xlink:href="#plyr-logo-youtube" class="sprite-symbol-usage" /><use id="plyr-muted-usage" xlink:href="#plyr-muted" class="sprite-symbol-usage" /><use id="plyr-pause-usage" xlink:href="#plyr-pause" class="sprite-symbol-usage" /><use id="plyr-pip-usage" xlink:href="#plyr-pip" class="sprite-symbol-usage" /><use id="plyr-play-usage" xlink:href="#plyr-play" class="sprite-symbol-usage" /><use id="plyr-restart-usage" xlink:href="#plyr-restart" class="sprite-symbol-usage" /><use id="plyr-rewind-usage" xlink:href="#plyr-rewind" class="sprite-symbol-usage" /><use id="plyr-settings-usage" xlink:href="#plyr-settings" class="sprite-symbol-usage" /><use id="plyr-volume-usage" xlink:href="#plyr-volume" class="sprite-symbol-usage" /><use id="user-usage" xlink:href="#user" class="sprite-symbol-usage" /></svg>