<svg width="512" height="362" viewBox="0 0 512 362" xmlns="http://www.w3.org/2000/svg" xmlns:xlink="http://www.w3.org/1999/xlink">
    <defs>
        <filter x="-20.5%" y="-31.8%" width="141%" height="165.2%" filterUnits="objectBoundingBox" id="f02aqxi0aa">
            <feMorphology radius=".353" operator="dilate" in="SourceAlpha" result="shadowSpreadOuter1"/>
            <feOffset dy="2" in="shadowSpreadOuter1" result="shadowOffsetOuter1"/>
            <feGaussianBlur stdDeviation="27" in="shadowOffsetOuter1" result="shadowBlurOuter1"/>
            <feComposite in="shadowBlurOuter1" in2="SourceAlpha" operator="out" result="shadowBlurOuter1"/>
            <feColorMatrix values="0 0 0 0 0 0 0 0 0 0 0 0 0 0 0 0 0 0 0.204314972 0" in="shadowBlurOuter1"/>
        </filter>
        <path id="r3ksuytwcb" d="M0 20.542h402V273H0z"/>
    </defs>
    <g fill="none" fill-rule="evenodd">
        <g transform="translate(55 32)">
            <use fill="#000" filter="url(#f02aqxi0aa)" xlink:href="#r3ksuytwcb"/>
            <use stroke="#323A39" stroke-width=".706" fill="#0F211D" xlink:href="#r3ksuytwcb"/>
            <path d="M8.473 0H393.78A8.22 8.22 0 0 1 402 8.22v12.322H0V8.472A8.473 8.473 0 0 1 8.473 0z" stroke="#323A39" stroke-width=".706" fill="#323A39"/>
            <ellipse fill="#FF6632" cx="9.932" cy="9.928" rx="3.082" ry="3.081"/>
            <ellipse fill="#F79E1B" cx="20.206" cy="9.928" rx="3.082" ry="3.081"/>
            <ellipse fill="#60D28F" cx="30.481" cy="9.928" rx="3.082" ry="3.081"/>
        </g>
        <text font-family="ObjektivMk2-Bold, Objektiv Mk2" font-size="202.689" font-weight="bold" letter-spacing="1.106" fill="#162E29" transform="translate(55 32)">
                    <tspan x="10.841" y="228">404</tspan>
                </text>
        <g stroke="#60D28F" stroke-linecap="square">
            <path d="m177.538 106.541 23.674 24.908m0-24.908-23.674 24.908M314.788 106.541l23.674 24.908m0-24.908-23.674 24.908" stroke-width="3.563"/>
            <path d="M177 219c7.643 0 8.694-9.04 16.61-9.04 7.916 0 8.281 9.04 15.998 9.04 7.718 0 7.997-9.04 16.035-9.04s7.732 9.04 16.072 9.04 7.94-9.04 16.168-9.04c8.228 0 8.382 9.04 16.732 9.04" stroke-width="3.292"/>
            <path d="M241.385 219c7.643 0 8.694-9.04 16.61-9.04 7.915 0 8.28 9.04 15.998 9.04 7.717 0 7.997-9.04 16.035-9.04S297.759 219 306.1 219c8.34 0 7.94-9.04 16.168-9.04 8.228 0 8.382 9.04 16.732 9.04" stroke-width="3.292"/>
        </g>
    </g>
</svg>
