<?xml version="1.0" encoding="UTF-8"?>
<svg width="54px" height="61px" viewBox="0 0 54 61" version="1.1" xmlns="http://www.w3.org/2000/svg" xmlns:xlink="http://www.w3.org/1999/xlink">
    <title>logo-mob-futer</title>
    <g id="Mob" stroke="none" stroke-width="1" fill="none" fill-rule="evenodd">
        <g id="mob-home-Wix" transform="translate(-36.000000, -4386.000000)" fill="#DDE5E0">
            <g id="Futer" transform="translate(0.000000, 4356.000000)">
                <path d="M87.9019038,59.6681694 L87.9019038,60.0635626 L87.9019038,60.4582717 L87.9019038,60.8529808 L87.9019038,73.0137151 C87.0747764,73.1648948 86.4472054,73.8818015 86.4472054,74.7471516 C86.4472054,74.9503207 86.4891811,75.1432288 86.5524887,75.3238236 L76.9558835,80.8319652 C76.7026531,80.5446553 76.3613426,80.3360135 75.9697989,80.2593976 L75.9697989,69.2355896 C76.7859164,69.076201 77.4017891,68.3620307 77.4017891,67.5048894 C77.4017891,66.64638 76.7859164,65.9322097 75.9697989,65.7728211 L75.9697989,54.564998 C76.7859164,54.4056094 77.4017891,53.691439 77.4017891,52.8329296 C77.4017891,52.6913269 77.3804572,52.5551967 77.3488034,52.423171 L86.5112012,47.1647154 L86.9061855,46.9376037 C87.1635446,47.2221774 87.5076076,47.4246625 87.9019038,47.4964899 L87.9019038,59.6681694 Z M74.1916813,51.799298 L64.6769631,46.3383573 C64.7402707,46.1570785 64.7815582,45.9655385 64.7815582,45.7630534 C64.7815582,45.5674091 64.7416469,45.3820257 64.6824681,45.2062194 L74.2949002,39.6891849 C74.6203838,40.0585834 75.0931264,40.2966402 75.6257359,40.2966402 C76.1583454,40.2966402 76.631088,40.0578993 76.9565716,39.6891849 L86.5497362,45.1952743 C86.4878049,45.374501 86.4472054,45.5633046 86.4472054,45.7630534 C86.4472054,45.9696429 86.4898693,46.1646032 86.5552412,46.3493025 L77.0597905,51.799298 C76.7363713,51.357388 76.2168361,51.0673418 75.6257359,51.0673418 C75.0339475,51.0673418 74.5137243,51.358072 74.1916813,51.799298 L74.1916813,51.799298 Z M75.2816729,65.7728211 C74.888753,65.8501211 74.5481306,66.0580788 74.2949002,66.3453887 L66.3518618,61.786738 L64.6797156,60.826986 C64.7409588,60.6484435 64.7815582,60.4603239 64.7815582,60.2605751 C64.7815582,59.4027497 64.1649973,58.6885794 63.3488799,58.5291908 L63.3488799,47.4944377 C63.7383592,47.4185058 64.0762291,47.2126004 64.3294594,46.9293949 L67.1432067,48.543803 L73.9019803,52.423171 C73.8703265,52.5551967 73.8496827,52.6913269 73.8496827,52.8329296 C73.8496827,53.691439 74.4655555,54.4049253 75.2816729,54.564998 L75.2816729,65.7728211 Z M75.2816729,80.2593976 C74.4655555,80.4187862 73.8496827,81.1329565 73.8496827,81.9907819 C73.8496827,82.1898466 73.889594,82.3786502 73.9508372,82.5565088 L64.3356526,88.0755955 C64.0824222,87.7882856 63.7417998,87.5796438 63.3488799,87.5030279 L63.3488799,76.4792199 C64.1649973,76.3191473 64.7815582,75.605661 64.7815582,74.7471516 C64.7815582,74.5480868 64.7409588,74.3599673 64.6797156,74.1814247 L74.2949002,68.663022 C74.5481306,68.9503319 74.888753,69.1596577 75.2816729,69.2355896 L75.2816729,80.2593976 Z M61.6746693,73.589019 L52.0815047,68.0822455 C52.1455004,67.9009667 52.186788,67.7073745 52.186788,67.5042054 C52.186788,67.3003521 52.1455004,67.107444 52.0815047,66.9254811 L61.6746693,61.4193917 C62.0001529,61.7887902 62.4722074,62.026847 63.0048169,62.026847 C63.5381145,62.026847 64.010169,61.7887902 64.3356526,61.4193917 L67.1432067,63.0310636 L73.9508372,66.9377944 C73.889594,67.117021 73.8496827,67.3051406 73.8496827,67.5048894 C73.8496827,67.7039542 73.889594,67.8913897 73.9508372,68.0706163 L64.3356526,73.589019 C64.010169,73.2196205 63.5381145,72.9815637 63.0048169,72.9815637 C62.4722074,72.9815637 62.0001529,73.2196205 61.6746693,73.589019 L61.6746693,73.589019 Z M62.6607539,87.5030279 C62.2692102,87.5796438 61.9278997,87.7882856 61.6746693,88.0755955 L39.4488875,75.3190351 C39.511507,75.1391244 39.5521064,74.9482685 39.5521064,74.7471516 C39.5521064,73.8859059 38.9300405,73.1703674 38.1084181,73.0150832 L38.1084181,61.9933275 C38.5034024,61.9194478 38.8474654,61.7121742 39.1027601,61.4241802 L48.7323954,66.9507917 C48.6732166,67.125914 48.6339934,67.3092451 48.6339934,67.5042054 C48.6339934,68.4790069 49.4294671,69.2704773 50.4107348,69.2704773 C50.9385274,69.2704773 51.4071412,69.0365249 51.7326248,68.6732831 L61.3306063,74.1814247 C61.2693631,74.3599673 61.2287637,74.5480868 61.2287637,74.7471516 C61.2287637,75.605661 61.8446364,76.3191473 62.6607539,76.4792199 L62.6607539,87.5030279 Z M38.1084181,47.4958059 C38.4999618,47.4219262 38.8419604,47.2180729 39.096567,46.9334993 L41.9027449,48.543803 L48.6828504,52.4354842 C48.653261,52.5640896 48.6339934,52.6961154 48.6339934,52.8329296 C48.6339934,53.6825461 49.2374799,54.3905598 50.040523,54.5595254 L50.040523,65.7776096 C49.6544843,65.859014 49.3207432,66.0690239 49.0716416,66.3549657 L39.4488875,60.8324586 C39.511507,60.6518638 39.5521064,60.4623761 39.5521064,60.2605751 C39.5521064,59.3986453 38.9300405,58.6837909 38.1084181,58.5278226 L38.1084181,47.4958059 Z M61.3306063,60.826986 L59.6777277,61.7757928 L51.7326248,66.3358117 C51.4745776,66.0471336 51.1270739,65.8419123 50.728649,65.7700848 L50.728649,54.5670502 C51.5578408,54.4179227 52.186788,53.7003319 52.186788,52.8329296 C52.186788,52.6865384 52.1633917,52.5469878 52.1303616,52.4108577 L61.6808625,46.9293949 C61.9334047,47.2126004 62.2719627,47.4185058 62.6607539,47.4944377 L62.6607539,58.5291908 C61.8446364,58.6885794 61.2287637,59.4027497 61.2287637,60.2605751 C61.2287637,60.4603239 61.2693631,60.6484435 61.3306063,60.826986 L61.3306063,60.826986 Z M39.45164,45.2007469 L61.437954,32.5810008 C61.7352244,33.1439914 62.3215078,33.5311757 63.0048169,33.5311757 C63.688126,33.5311757 64.2750975,33.1439914 64.5716798,32.5810008 L73.9508372,37.9639573 C73.889594,38.143184 73.8496827,38.3313035 73.8496827,38.5303683 C73.8496827,38.7301171 73.889594,38.9182367 73.9508372,39.0967793 L64.3418457,44.6117615 C64.0163621,44.2382586 63.5415552,43.9967815 63.0048169,43.9967815 C62.0242373,43.9967815 61.2287637,44.7875678 61.2287637,45.7630534 C61.2287637,45.9655385 61.2700512,46.1577625 61.3333588,46.3383573 L51.8365318,51.789721 C51.5131126,51.3539676 50.9970181,51.0673418 50.4107348,51.0673418 C49.8141295,51.0673418 49.2904656,51.3614924 48.9677345,51.8095591 L39.446135,46.3438299 C39.5101307,46.1611829 39.5521064,45.9675907 39.5521064,45.7630534 C39.5521064,45.5653568 39.5121951,45.3779213 39.45164,45.2007469 L39.45164,45.2007469 Z M88.5900298,47.4903333 C89.3951372,47.3227358 90,46.613354 90,45.7630534 C90,44.7875678 89.2045263,43.9967815 88.2232587,43.9967815 C87.6913373,43.9967815 87.2192828,44.2341542 86.8937992,44.6028686 L77.2999465,39.0967793 C77.3611897,38.9182367 77.4017891,38.7301171 77.4017891,38.5303683 C77.4017891,37.5548827 76.6063155,36.7647804 75.6257359,36.7647804 C75.0931264,36.7647804 74.6203838,37.0028372 74.2949002,37.3715516 L64.7671076,31.9037702 C64.7712363,31.8572534 64.7815582,31.8127888 64.7815582,31.7655879 C64.7815582,30.7907863 63.9860846,30 63.0048169,30 C62.0242373,30 61.2287637,30.7907863 61.2287637,31.7655879 C61.2287637,31.8127888 61.2390856,31.8572534 61.2425262,31.9037702 L39.1089533,44.606973 C38.7834697,44.2362064 38.310039,43.9967815 37.7760532,43.9967815 C36.7947855,43.9967815 36,44.7875678 36,45.7630534 C36,46.6167743 36.6096796,47.3295765 37.4202921,47.4930696 L37.4202921,58.5305589 C36.6096796,58.694736 36,59.4068542 36,60.2605751 C36,61.11498 36.6096796,61.8270982 37.4202921,61.9912753 L37.4202921,73.0171354 C36.6096796,73.1806284 36,73.8934307 36,74.7471516 C36,75.7226372 36.7947855,76.5134235 37.7760532,76.5134235 C38.3065984,76.5134235 38.7779647,76.2774189 39.1027601,75.9107567 L61.3306063,88.6680012 C61.2693631,88.8472278 61.2287637,89.0353474 61.2287637,89.2344121 C61.2287637,90.2098977 62.0242373,91 63.0048169,91 C63.9860846,91 64.7815582,90.2098977 64.7815582,89.2344121 C64.7815582,89.0346633 64.7409588,88.8465438 64.6797156,88.6680012 L74.2949002,83.1495985 C74.6203838,83.518997 75.0924383,83.7563697 75.6257359,83.7563697 C76.6063155,83.7563697 77.4017891,82.9662674 77.4017891,81.9907819 C77.4017891,81.7917171 77.3611897,81.6035975 77.2999465,81.4243709 L86.8999924,75.9148612 C87.225476,76.2794711 87.6947779,76.5134235 88.2232587,76.5134235 C89.2045263,76.5134235 90,75.7226372 90,74.7471516 C90,73.896851 89.3951372,73.1881532 88.5900298,73.0198717 L88.5900298,60.2605751 L88.5900298,47.4903333 Z" id="logo-mob-futer"></path>
            </g>
        </g>
    </g>
</svg>