<?xml version="1.0" encoding="UTF-8"?>
<svg width="217px" height="51px" viewBox="0 0 217 51" version="1.1" xmlns="http://www.w3.org/2000/svg" xmlns:xlink="http://www.w3.org/1999/xlink">
    <title>logo</title>
    <g id="Desktop" stroke="none" stroke-width="1" fill="none" fill-rule="evenodd">
        <g id="Home" transform="translate(-39.000000, -22.000000)" fill="#FFFFFF">
            <g id="header" transform="translate(39.000000, 22.000000)">
                <path d="M158.903179,38.4004172 L161.367306,32.0611627 L163.832585,38.4004172 L158.903179,38.4004172 Z M163.451761,29.3919728 C163.361884,29.1408962 163.257027,28.9515879 163.137767,28.8251918 C163.017931,28.6993675 162.838754,28.6364554 162.599658,28.6364554 L160.135531,28.6364554 C159.895859,28.6364554 159.717257,28.6993675 159.597421,28.8251918 C159.477585,28.9515879 159.373305,29.1408962 159.284004,29.3919728 L153.794595,43.4488292 C153.779039,43.4934396 153.772126,43.5460571 153.772126,43.6055376 C153.772126,43.7685372 153.831468,43.9092316 153.951304,44.0276208 C154.070563,44.1465819 154.212293,44.2049186 154.377643,44.2049186 L155.989667,44.2049186 C156.288681,44.2049186 156.497818,44.1425784 156.617654,44.0161822 C156.736338,43.8909299 156.819301,43.7685372 156.863663,43.6495761 L157.827536,41.1805612 L164.907076,41.1805612 L165.870949,43.6495761 C165.915888,43.7685372 165.997699,43.8909299 166.117535,44.0161822 C166.236794,44.1425784 166.446507,44.2049186 166.744369,44.2049186 L168.358121,44.2049186 C168.521744,44.2049186 168.664049,44.1465819 168.783885,44.0276208 C168.902568,43.9092316 168.962486,43.7685372 168.962486,43.6055376 C168.962486,43.5460571 168.954997,43.4934396 168.940017,43.4488292 L163.451761,29.3919728 Z M182.09259,28.6362838 L171.002002,28.6362838 C170.837228,28.6362838 170.695499,28.6957644 170.576239,28.8141535 C170.456979,28.9331147 170.396485,29.073809 170.396485,29.2368086 L170.396485,30.815903 C170.396485,30.9794745 170.456979,31.1201689 170.576239,31.2385581 C170.695499,31.3575192 170.837228,31.4158559 171.002002,31.4158559 L175.034943,31.4158559 L175.034943,43.605366 C175.034943,43.7683656 175.094285,43.90906 175.214121,44.0274492 C175.333957,44.1464103 175.475686,44.2053189 175.640461,44.2053189 L177.454132,44.2053189 C177.618906,44.2053189 177.760636,44.1464103 177.880471,44.0274492 C177.999731,43.90906 178.059649,43.7683656 178.059649,43.605366 L178.059649,31.4158559 L182.09259,31.4158559 C182.256789,31.4158559 182.397942,31.3575192 182.517778,31.2385581 C182.637614,31.1201689 182.697532,30.9794745 182.697532,30.815903 L182.697532,29.2368086 C182.697532,29.073809 182.637614,28.9331147 182.517778,28.8141535 C182.397942,28.6957644 182.256789,28.6362838 182.09259,28.6362838 M132.555745,21.9635951 L142.391512,21.9635951 C142.555134,21.9635951 142.697439,21.9046864 142.817275,21.7857253 C142.936535,21.6673362 142.995877,21.5266418 142.995877,21.3630702 L142.995877,19.7839759 C142.995877,19.6209763 142.936535,19.4802819 142.817275,19.3613208 C142.697439,19.2429316 142.555134,19.1834511 142.391512,19.1834511 L134.974933,19.1834511 L134.974933,15.4916532 L141.718587,15.4916532 C141.883361,15.4916532 142.02509,15.4321727 142.144926,15.3137835 C142.264762,15.1953943 142.324104,15.054128 142.324104,14.8911284 L142.324104,13.312034 C142.324104,13.1484625 142.264762,13.0077681 142.144926,12.889379 C142.02509,12.7704178 141.883361,12.7109373 141.718587,12.7109373 L134.974933,12.7109373 L134.974933,9.17470394 L142.211758,9.17470394 C142.376532,9.17470394 142.517685,9.11579532 142.637521,8.99683421 C142.757357,8.87844503 142.817275,8.73775064 142.817275,8.57417911 L142.817275,6.99508478 C142.817275,6.83208518 142.757357,6.6913908 142.637521,6.57242969 C142.517685,6.45404051 142.376532,6.39455995 142.211758,6.39455995 L132.555745,6.39455995 C132.39097,6.39455995 132.248665,6.45404051 132.129405,6.57242969 C132.009569,6.6913908 131.950227,6.83208518 131.950227,6.99508478 L131.950227,21.3630702 C131.950227,21.5266418 132.009569,21.6673362 132.129405,21.7857253 C132.248665,21.9046864 132.39097,21.9635951 132.555745,21.9635951 M213.011421,35.1972749 C212.503847,35.4946777 211.823432,35.6422352 210.972481,35.6422352 L207.723083,35.6422352 L207.723083,31.4162562 L210.972481,31.4162562 C211.823432,31.4162562 212.503847,31.5575225 213.011421,31.8389113 C213.518996,32.120872 213.773071,32.6767864 213.773071,33.5072265 C213.773071,34.3376665 213.518996,34.901016 213.011421,35.1972749 M216.932592,43.4713632 L213.840479,37.9774189 C214.811265,37.6073812 215.546413,37.0406002 216.047074,36.2759319 C216.547734,35.5129794 216.797777,34.589887 216.797777,33.5072265 C216.797777,31.9801776 216.312095,30.7859911 215.341309,29.9258108 C214.369946,29.0662024 212.951503,28.6361122 211.084252,28.6361122 L205.303895,28.6361122 C205.139696,28.6361122 204.997391,28.6955928 204.878708,28.813982 C204.758872,28.9329431 204.698377,29.0736375 204.698377,29.2366371 L204.698377,43.6051945 C204.698377,43.7681941 204.758872,43.9088884 204.878708,44.0272776 C204.997391,44.1462387 205.139696,44.2051474 205.303895,44.2051474 L207.118718,44.2051474 C207.282917,44.2051474 207.425222,44.1462387 207.544482,44.0272776 C207.663741,43.9088884 207.723083,43.7681941 207.723083,43.6051945 L207.723083,38.4229512 L210.704003,38.4229512 L213.638832,43.6051945 C213.698174,43.7235836 213.798997,43.8534114 213.940726,43.9941058 C214.083031,44.1353721 214.303691,44.2051474 214.602128,44.2051474 L216.506253,44.2051474 C216.641644,44.2051474 216.756871,44.1576773 216.854238,44.0610214 C216.950452,43.9643655 217,43.8499798 217,43.7161486 C217,43.6423698 216.977531,43.560584 216.932592,43.4713632 M151.03929,9.17453236 L154.288688,9.17453236 C155.139639,9.17453236 155.818901,9.31579868 156.327052,9.59718746 C156.835202,9.87857623 157.089277,10.4350626 157.089277,11.2655026 C157.089277,12.0959427 156.835202,12.6592922 156.327052,12.9555511 C155.818901,13.2529538 155.139639,13.4005114 154.288688,13.4005114 L151.03929,13.4005114 L151.03929,9.17453236 Z M156.954462,21.3634706 C157.01438,21.4824317 157.115204,21.6116875 157.256933,21.7523819 C157.398086,21.8936482 157.618745,21.9634235 157.917759,21.9634235 L159.822459,21.9634235 C159.956699,21.9634235 160.072502,21.9159534 160.169292,21.8192975 C160.266659,21.7226416 160.316206,21.608256 160.316206,21.4744247 C160.316206,21.4006459 160.293161,21.3188602 160.248223,21.2296393 L157.156109,15.736267 C158.126896,15.3656574 158.862619,14.7983044 159.362704,14.034208 C159.863365,13.2712556 160.113407,12.3475912 160.113407,11.2655026 C160.113407,9.73845377 159.628302,8.54426726 158.657515,7.68465886 C157.686153,6.82447854 156.266557,6.39438837 154.400458,6.39438837 L148.620101,6.39438837 C148.455903,6.39438837 148.313598,6.45386893 148.193762,6.57225811 C148.073926,6.69121922 148.014584,6.83191361 148.014584,6.9949132 L148.014584,21.3634706 C148.014584,21.5270421 148.073926,21.6677365 148.193762,21.7861257 C148.313598,21.9045149 148.455903,21.9634235 148.620101,21.9634235 L150.433772,21.9634235 C150.598547,21.9634235 150.740852,21.9045149 150.860112,21.7861257 C150.979372,21.6677365 151.03929,21.5270421 151.03929,21.3634706 L151.03929,16.1806554 L154.019633,16.1806554 L156.954462,21.3634706 Z M196.476824,38.311082 C196.416906,39.3788723 196.069497,40.2018773 195.434597,40.7800969 C194.799696,41.3583165 193.959116,41.6477123 192.914008,41.6477123 C191.868324,41.6477123 191.027744,41.3583165 190.39342,40.7800969 C189.75852,40.2018773 189.410535,39.3788723 189.351769,38.311082 C189.32181,37.7483044 189.307407,37.1214709 189.307407,36.4322971 C189.307407,35.7425515 189.32181,35.1162899 189.351769,34.5523685 C189.410535,33.48515 189.75852,32.6581416 190.39342,32.0724869 C191.027744,31.4868322 191.868324,31.1940048 192.914008,31.1940048 C193.959116,31.1940048 194.799696,31.4868322 195.434597,32.0724869 C196.069497,32.6581416 196.416906,33.48515 196.476824,34.5523685 C196.506783,35.1162899 196.521186,35.7425515 196.521186,36.4322971 C196.521186,37.1214709 196.506783,37.7483044 196.476824,38.311082 M199.500953,34.4414143 C199.456591,33.5961042 199.291817,32.8102745 199.008358,32.0833535 C198.724324,31.3575764 198.31354,30.7198762 197.776007,30.1713969 C197.237897,29.6229175 196.566125,29.1922554 195.759536,28.8811264 C194.952372,28.5694254 194.004055,28.4138609 192.914008,28.4138609 C191.808406,28.4138609 190.852023,28.5734289 190.046011,28.891993 C189.239423,29.2111291 188.56765,29.6406473 188.030117,30.1822635 C187.492007,30.7233078 187.08468,31.3610079 186.808712,32.0947921 C186.531591,32.8285762 186.371426,33.6109743 186.327639,34.4414143 C186.311508,34.7233751 186.300561,35.0345041 186.293071,35.3753734 C186.286158,35.7168147 186.282701,36.0685507 186.282701,36.4322971 C186.282701,36.7960436 186.286158,37.1477796 186.293071,37.4886489 C186.300561,37.8295182 186.311508,38.1412192 186.327639,38.422608 C186.371426,39.253048 186.531591,40.0354461 186.808712,40.7692303 C187.08468,41.5030144 187.492007,42.1407146 188.030117,42.6823308 C188.56765,43.2233751 189.239423,43.6494617 190.046011,43.9605908 C190.852023,44.2722918 191.808406,44.4278563 192.914008,44.4278563 C194.004055,44.4278563 194.955829,44.2722918 195.770483,43.9605908 C196.584561,43.6494617 197.260367,43.2233751 197.798476,42.6823308 C198.336586,42.1407146 198.743337,41.5030144 199.019881,40.7692303 C199.29585,40.0354461 199.456591,39.253048 199.500953,38.422608 C199.515933,38.1412192 199.526879,37.8295182 199.534369,37.4886489 C199.541859,37.1477796 199.545892,36.7960436 199.545892,36.4322971 C199.545892,36.0685507 199.541859,35.7168147 199.534369,35.3753734 C199.526879,35.0345041 199.515933,34.7233751 199.500953,34.4414143 M85.6829445,16.1585789 L88.1476476,9.81989638 L90.6123507,16.1585789 L85.6829445,16.1585789 Z M92.6512905,21.4077379 C92.6956529,21.526699 92.777464,21.6490916 92.8972999,21.7749159 C93.0165597,21.9013121 93.2256966,21.9636523 93.5247103,21.9636523 L95.1378868,21.9636523 C95.3020851,21.9636523 95.4438141,21.9047436 95.5636501,21.7857825 C95.6829099,21.6673934 95.7428279,21.526699 95.7428279,21.3631274 C95.7428279,21.3042188 95.7353382,21.2521733 95.7203587,21.2075629 L90.2315259,7.1507065 C90.1416489,6.899058 90.0367924,6.7097497 89.9175326,6.58335352 C89.7976966,6.45752927 89.6185188,6.39461714 89.379423,6.39461714 L86.915296,6.39461714 C86.6762002,6.39461714 86.4970224,6.45752927 86.3777626,6.58335352 C86.2579266,6.7097497 86.1530702,6.899058 86.0637693,7.1507065 L80.5743604,21.2075629 C80.5588047,21.2521733 80.5518911,21.3042188 80.5518911,21.3631274 C80.5518911,21.526699 80.6118091,21.6673934 80.7310689,21.7857825 C80.8503288,21.9047436 80.9920578,21.9636523 81.1568323,21.9636523 L82.7700087,21.9636523 C83.0684464,21.9636523 83.2775832,21.9013121 83.3974191,21.7749159 C83.516679,21.6490916 83.5990662,21.526699 83.6440047,21.4077379 L84.6073015,18.9387229 L91.6874176,18.9387229 L92.6512905,21.4077379 Z M114.383888,41.4248318 L106.966733,41.4248318 L106.966733,37.7330339 L113.710963,37.7330339 C113.875738,37.7330339 114.016891,37.6735534 114.136727,37.5551642 C114.256562,37.436775 114.31648,37.2955087 114.31648,37.1325091 L114.31648,35.5534147 C114.31648,35.3904152 114.256562,35.2497208 114.136727,35.1307597 C114.016891,35.0117985 113.875738,34.9528899 113.710963,34.9528899 L106.966733,34.9528899 L106.966733,31.4160846 L114.204134,31.4160846 C114.368909,31.4160846 114.510062,31.357176 114.629898,31.2382149 C114.749734,31.1198257 114.809075,30.9791313 114.809075,30.8155598 L114.809075,29.2364655 C114.809075,29.0734659 114.749734,28.9327715 114.629898,28.8138104 C114.510062,28.6954212 114.368909,28.6365126 114.204134,28.6365126 L104.547545,28.6365126 C104.38277,28.6365126 104.241041,28.6954212 104.121205,28.8138104 C104.001369,28.9327715 103.942028,29.0734659 103.942028,29.2364655 L103.942028,43.6055948 C103.942028,43.7685944 104.001369,43.9092888 104.121205,44.027678 C104.241041,44.1466391 104.38277,44.2049758 104.547545,44.2049758 L114.383888,44.2049758 C114.54751,44.2049758 114.689239,44.1466391 114.809075,44.027678 C114.927759,43.9092888 114.988253,43.7685944 114.988253,43.6055948 L114.988253,42.0259285 C114.988253,41.8629289 114.927759,41.7222346 114.809075,41.6032734 C114.689239,41.4843123 114.54751,41.4248318 114.383888,41.4248318 M108.021059,21.8303929 C108.827648,21.5930427 109.507486,21.271047 110.059999,20.8626901 C110.612512,20.4549051 111.038276,19.9659063 111.337289,19.3945499 C111.635151,18.8243372 111.784946,18.2049388 111.784946,17.5374983 C111.784946,16.9301103 111.684122,16.3890661 111.482475,15.9137936 C111.280828,15.4396649 110.974901,15.0210133 110.564117,14.6572669 C110.153333,14.2940923 109.623289,13.9829633 108.97341,13.7233078 C108.32353,13.4642242 107.550934,13.2377405 106.654469,13.0450007 C105.832901,12.8671309 105.145572,12.7109945 104.59306,12.5777352 C104.03997,12.4444758 103.595771,12.299206 103.259884,12.1436415 C102.923422,11.9886489 102.684902,11.8033441 102.543173,11.5877271 C102.400868,11.3732539 102.330003,11.0947248 102.330003,10.7538555 C102.330003,10.4724667 102.404325,10.2202463 102.55412,9.99776611 C102.703339,9.77528596 102.908442,9.58597766 103.170007,9.43041313 C103.431572,9.27484861 103.738076,9.15645943 104.088942,9.07467366 C104.439808,8.99345983 104.809686,8.95228099 105.198001,8.95228099 C106.09389,8.95228099 106.770272,9.0895438 107.225418,9.36349751 C107.68114,9.63859507 108.021059,9.96059077 108.245176,10.3312004 C108.349456,10.4947719 108.465259,10.6240277 108.592585,10.7201117 C108.719334,10.8167676 108.909459,10.8653815 109.163534,10.8653815 L110.732348,10.8653815 C110.896546,10.8653815 111.041732,10.8093325 111.169058,10.6983784 C111.296384,10.5868524 111.351693,10.4427264 111.337289,10.2642848 C111.30733,9.83476652 111.160992,9.37893958 110.900003,8.896232 C110.639014,8.41466828 110.25358,7.97371148 109.746006,7.57278966 C109.238432,7.17301171 108.603531,6.83957745 107.841882,6.57248688 C107.080232,6.30539631 106.19817,6.17213699 105.198001,6.17213699 C104.361453,6.17213699 103.580791,6.2870946 102.85659,6.51700982 C102.131813,6.74692504 101.508436,7.0620576 100.985882,7.46183555 C100.462752,7.86218544 100.051968,8.34432109 99.7535302,8.90767057 C99.4545164,9.47102005 99.3058738,10.086415 99.3058738,10.7538555 C99.3058738,11.420724 99.3951746,11.996084 99.5743524,12.4770758 C99.7535302,12.9597833 100.026042,13.3784349 100.392463,13.7341744 C100.758309,14.0899139 101.220945,14.3907482 101.781523,14.6349616 C102.341526,14.879747 102.994863,15.0907886 103.741533,15.2686583 C104.563101,15.4768403 105.287878,15.646703 105.914712,15.7805342 C106.542122,15.9137936 107.068709,16.0550599 107.494473,16.2031893 C107.920236,16.3513188 108.23711,16.5297605 108.446823,16.7367985 C108.65596,16.9449805 108.760816,17.2114991 108.760816,17.5374983 C108.760816,17.8789396 108.662873,18.1637599 108.469292,18.3942471 C108.274559,18.6241623 108.021059,18.8163302 107.707642,18.9718948 C107.394225,19.1280312 107.027804,19.2389853 106.60953,19.305901 C106.191256,19.3728166 105.758003,19.4059884 105.309771,19.4059884 C104.742278,19.4059884 104.26812,19.3579464 103.887295,19.2612905 C103.50647,19.1652066 103.18902,19.042242 102.934945,18.8946844 C102.680869,18.745983 102.479222,18.5755484 102.330003,18.3828085 C102.180208,18.1900686 102.054035,17.9973288 101.949179,17.8045889 C101.859878,17.6261472 101.747532,17.4934598 101.612716,17.404239 C101.479053,17.3150182 101.284319,17.2704078 101.03082,17.2704078 L99.4625823,17.2704078 C99.2978079,17.2704078 99.1520459,17.3264567 99.0252963,17.4374108 C98.8985467,17.5489369 98.8420855,17.6930628 98.8576412,17.8709326 C98.9020035,18.5240748 99.1036506,19.1165927 99.4625823,19.6502019 C99.8209379,20.184383 100.295097,20.6402099 100.885058,21.0182546 C101.47502,21.3968712 102.150826,21.6856951 102.913051,21.88587 C103.674701,22.0860449 104.473224,22.1861324 105.309771,22.1861324 C106.310516,22.1861324 107.214471,22.0671713 108.021059,21.8303929 M119.806523,21.3631846 C119.806523,21.5267562 119.866441,21.6674505 119.986277,21.7858397 C120.106113,21.9048008 120.247266,21.9637095 120.41204,21.9637095 L122.226864,21.9637095 C122.390486,21.9637095 122.532215,21.9048008 122.652051,21.7858397 C122.771887,21.6674505 122.831805,21.5267562 122.831805,21.3631846 L122.831805,9.1742464 L126.864746,9.1742464 C127.028368,9.1742464 127.170674,9.11533777 127.29051,8.99637667 C127.409193,8.87798748 127.469687,8.7372931 127.469687,8.5742935 L127.469687,6.99462724 C127.469687,6.83219957 127.409193,6.69150518 127.29051,6.57254407 C127.170674,6.45415489 127.028368,6.39467434 126.864746,6.39467434 L115.773582,6.39467434 C115.609384,6.39467434 115.467655,6.45415489 115.348395,6.57254407 C115.228559,6.69150518 115.169217,6.83219957 115.169217,6.99462724 L115.169217,8.5742935 C115.169217,8.7372931 115.228559,8.87798748 115.348395,8.99637667 C115.467655,9.11533777 115.609384,9.1742464 115.773582,9.1742464 L119.806523,9.1742464 L119.806523,21.3631846 Z M132.307603,35.2643049 L127.154657,35.2643049 C126.989883,35.2643049 126.848154,35.3237855 126.728318,35.4421747 C126.608482,35.5611358 126.549716,35.7018302 126.549716,35.8648298 L126.549716,37.4439241 C126.549716,37.6074956 126.608482,37.74819 126.728318,37.8665792 C126.848154,37.9855403 126.989883,38.0444489 127.154657,38.0444489 L129.887839,38.0444489 L129.887839,38.2223187 C129.887839,38.8600188 129.794505,39.3982035 129.607261,39.8351568 C129.420594,40.272682 129.159605,40.624418 128.823719,40.8915085 C128.487832,41.1585991 128.087995,41.351339 127.624783,41.4697282 C127.161571,41.5886893 126.653996,41.6475979 126.102059,41.6475979 C124.980902,41.6475979 124.085013,41.3696407 123.41324,40.8131544 C122.740891,40.2572399 122.381959,39.3644597 122.337021,38.1336698 C122.307638,37.5697484 122.292082,36.965792 122.292082,36.3206567 C122.292082,35.6755215 122.307638,35.0715651 122.337021,34.5082156 C122.381959,33.4999058 122.740891,32.6957745 123.41324,32.0946777 C124.085013,31.4941529 124.980902,31.1938905 126.102059,31.1938905 C126.773832,31.1938905 127.333835,31.2791078 127.782067,31.4495425 C128.2303,31.6205491 128.591536,31.8132889 128.868081,32.0277621 C129.144625,32.2433791 129.346272,32.4509891 129.473598,32.651164 C129.600348,32.8507671 129.678702,32.9811667 129.708661,33.0400754 C129.753023,33.1292962 129.823312,33.2145135 129.921831,33.2962993 C130.018045,33.3775131 130.148828,33.4175481 130.313602,33.4175481 L132.12785,33.4175481 C132.2932,33.4175481 132.438386,33.362643 132.565712,33.2511169 C132.691885,33.1401628 132.74777,32.9954649 132.733367,32.8175952 C132.703408,32.4767259 132.587605,32.0580743 132.385958,31.5610685 C132.184887,31.0640627 131.833445,30.5819271 131.332784,30.1152335 C130.832123,29.647968 130.16035,29.2476181 129.31689,28.9136119 C128.472853,28.5801776 127.400666,28.4137465 126.102059,28.4137465 C124.996457,28.4137465 124.029128,28.5578724 123.198918,28.8472682 C122.370437,29.136092 121.672162,29.5444489 121.105245,30.0706231 C120.537177,30.5973691 120.103924,31.2270623 119.806062,31.9614184 C119.506472,32.6957745 119.341698,33.5073409 119.312315,34.3966895 C119.297912,34.6786502 119.285813,34.9903512 119.278899,35.3312206 C119.27141,35.6720899 119.267953,36.0203943 119.267953,36.3761338 C119.267953,36.7318732 119.27141,37.0807496 119.278899,37.421047 C119.285813,37.7624882 119.297912,38.0741892 119.312315,38.355578 C119.341698,39.2454986 119.503016,40.065072 119.793963,40.8131544 C120.084911,41.5623806 120.507794,42.2035123 121.060307,42.7376934 C121.61282,43.2713027 122.307638,43.6870946 123.143609,43.9827816 C123.980156,44.2796124 124.965922,44.4277419 126.102059,44.4277419 C127.236468,44.4277419 128.2303,44.2756089 129.081251,43.971915 C129.932777,43.668221 130.641423,43.2455659 131.209491,42.7045216 C131.77756,42.1629054 132.202747,41.5183421 132.486781,40.7691159 C132.770239,40.0198897 132.912545,39.2008882 132.912545,38.3109676 L132.912545,35.8648298 C132.912545,35.7018302 132.852051,35.5611358 132.733367,35.4421747 C132.613531,35.3237855 132.471226,35.2643049 132.307603,35.2643049 M98.8566617,28.6362838 L87.7660738,28.6362838 C87.6012993,28.6362838 87.4595702,28.6957644 87.3403104,28.8141535 C87.2204744,28.9331147 87.1611326,29.073809 87.1611326,29.2368086 L87.1611326,30.815903 C87.1611326,30.9794745 87.2204744,31.1201689 87.3403104,31.2385581 C87.4595702,31.3575192 87.6012993,31.4158559 87.7660738,31.4158559 L91.7990148,31.4158559 L91.7990148,43.605366 C91.7990148,43.7683656 91.8583567,43.90906 91.9781926,44.0274492 C92.0980286,44.1464103 92.2397577,44.2053189 92.403956,44.2053189 L94.2187795,44.2053189 C94.3824017,44.2053189 94.5247069,44.1464103 94.6445428,44.0274492 C94.7638027,43.90906 94.8237206,43.7683656 94.8237206,43.605366 L94.8237206,31.4158559 L98.8566617,31.4158559 C99.02086,31.4158559 99.1625891,31.3575192 99.2824251,31.2385581 C99.4016849,31.1201689 99.4616029,30.9794745 99.4616029,30.815903 L99.4616029,29.2368086 C99.4616029,29.073809 99.4016849,28.9331147 99.2824251,28.8141535 C99.1625891,28.6957644 99.02086,28.6362838 98.8566617,28.6362838 M73.2476587,12.6667272 L73.2476587,21.3634706 C73.2476587,21.5270421 73.3075767,21.6677365 73.4274126,21.7861257 C73.5466725,21.9045149 73.6884015,21.9634235 73.853176,21.9634235 L75.6679995,21.9634235 C75.8321978,21.9634235 75.9739269,21.9045149 76.0931867,21.7861257 C76.2124465,21.6677365 76.2723645,21.5270421 76.2723645,21.3634706 L76.2723645,6.9949132 C76.2723645,6.83191361 76.2124465,6.69121922 76.0931867,6.57225811 C75.9739269,6.45386893 75.8321978,6.39438837 75.6679995,6.39438837 L74.1441239,6.39438837 C73.8451101,6.39438837 73.6250267,6.47617414 73.4832977,6.63917373 C73.3409925,6.80217333 73.2401689,6.92113444 73.1808271,6.9949132 L68.9237697,14.3350424 L64.6667123,6.9949132 C64.6062182,6.92113444 64.5059708,6.80217333 64.3642418,6.63917373 C64.2219365,6.47617414 64.0018532,6.39438837 63.7034155,6.39438837 L62.1801161,6.39438837 C62.0153416,6.39438837 61.8736126,6.45386893 61.7537766,6.57225811 C61.6339406,6.69121922 61.5745988,6.83191361 61.5745988,6.9949132 L61.5745988,21.3634706 C61.5745988,21.5270421 61.6339406,21.6677365 61.7537766,21.7861257 C61.8736126,21.9045149 62.0153416,21.9634235 62.1801161,21.9634235 L63.9943634,21.9634235 C64.1585618,21.9634235 64.300867,21.9045149 64.4201268,21.7861257 C64.5393866,21.6677365 64.5993046,21.5270421 64.5993046,21.3634706 L64.5993046,12.6667272 L67.5122403,17.6711008 C67.5865617,17.7900619 67.6914181,17.9124546 67.8256575,18.0382788 C67.9604729,18.1641031 68.132161,18.2270152 68.3407217,18.2270152 L69.5062416,18.2270152 C69.7153784,18.2270152 69.8870665,18.1641031 70.0213058,18.0382788 C70.1561213,17.9124546 70.2604016,17.7900619 70.3352991,17.6711008 L73.2476587,12.6667272 Z M146.287851,35.1972749 C145.779701,35.4946777 145.100438,35.6422352 144.249488,35.6422352 L141.000666,35.6422352 L141.000666,31.4162562 L144.249488,31.4162562 C145.100438,31.4162562 145.779701,31.5575225 146.287851,31.8389113 C146.796002,32.120872 147.050077,32.6767864 147.050077,33.5072265 C147.050077,34.3376665 146.796002,34.901016 146.287851,35.1972749 L146.287851,35.1972749 Z M147.117485,37.9774189 C148.087695,37.6073812 148.823419,37.0406002 149.324656,36.2759319 C149.824741,35.5129794 150.074783,34.589887 150.074783,33.5072265 C150.074783,31.9801776 149.589102,30.7859911 148.618315,29.9258108 C147.646953,29.0662024 146.227933,28.6361122 144.361834,28.6361122 L138.581477,28.6361122 C138.416703,28.6361122 138.274397,28.6955928 138.155138,28.813982 C138.035302,28.9329431 137.97596,29.0736375 137.97596,29.2366371 L137.97596,43.6051945 C137.97596,43.7681941 138.035302,43.9088884 138.155138,44.0272776 C138.274397,44.1462387 138.416703,44.2051474 138.581477,44.2051474 L140.395148,44.2051474 C140.559923,44.2051474 140.702228,44.1462387 140.822064,44.0272776 C140.940748,43.9088884 141.000666,43.7681941 141.000666,43.6051945 L141.000666,38.4229512 L143.981009,38.4229512 L146.915838,43.6051945 C146.97518,43.7235836 147.076003,43.8534114 147.218308,43.9941058 C147.359461,44.1353721 147.580121,44.2051474 147.879711,44.2051474 L149.783835,44.2051474 C149.918074,44.2051474 150.033301,44.1576773 150.130668,44.0610214 C150.228035,43.9643655 150.277006,43.8499798 150.277006,43.7161486 C150.277006,43.6423698 150.254537,43.560584 150.209599,43.4713632 L147.117485,37.9774189 Z M43.4549402,24.8045351 L43.4549402,25.1351097 L43.4549402,25.4651124 L43.4549402,25.7951151 L43.4549402,35.9622864 C42.7624266,36.0886825 42.236992,36.6880635 42.236992,37.411553 C42.236992,37.5814157 42.2721362,37.7426995 42.3251405,37.8936886 L34.2903696,42.4988561 C34.0783522,42.2586462 33.7925895,42.084208 33.464769,42.0201521 L33.464769,32.8035258 C34.1480644,32.6702665 34.6637048,32.0731732 34.6637048,31.3565469 C34.6637048,30.6387767 34.1480644,30.0416835 33.464769,29.9084242 L33.464769,20.5379491 C34.1480644,20.4046898 34.6637048,19.8075966 34.6637048,19.0898264 C34.6637048,18.9714372 34.6458446,18.8576235 34.6193424,18.7472413 L42.2905725,14.3508276 L42.6212736,14.1609474 C42.8367479,14.3988696 43.1248151,14.5681604 43.4549402,14.6282129 L43.4549402,24.8045351 Z M31.9760376,18.2256426 L24.0098267,13.6599381 C24.062831,13.5083771 24.0973991,13.3482371 24.0973991,13.1789463 C24.0973991,13.0153748 24.0639833,12.8603822 24.0144358,12.7133966 L32.0624578,8.10079397 C32.3349693,8.40963531 32.7307737,8.6086664 33.1767018,8.6086664 C33.6226298,8.6086664 34.0184342,8.40906338 34.2909458,8.10079397 L42.322836,12.7042457 C42.2709839,12.854091 42.236992,13.0119432 42.236992,13.1789463 C42.236992,13.3516687 42.2727123,13.5146683 42.3274451,13.669089 L34.3773659,18.2256426 C34.1065827,17.8561768 33.6716012,17.6136792 33.1767018,17.6136792 C32.6812261,17.6136792 32.2456685,17.8567488 31.9760376,18.2256426 L31.9760376,18.2256426 Z M32.8886345,29.9084242 C32.5596618,29.9730521 32.2744752,30.1469183 32.0624578,30.3871282 L25.4121379,26.5757973 L24.0121312,25.7733818 C24.0634072,25.6241085 24.0973991,25.4668282 24.0973991,25.2998251 C24.0973991,24.5826268 23.5811827,23.9855336 22.8978872,23.8522743 L22.8978872,14.6264971 C23.2239793,14.5630131 23.5068613,14.3908626 23.7188788,14.1540842 L26.0746925,15.5038353 L31.733485,18.7472413 C31.7069828,18.8576235 31.6896988,18.9714372 31.6896988,19.0898264 C31.6896988,19.8075966 32.2053391,20.4041179 32.8886345,20.5379491 L32.8886345,29.9084242 Z M32.8886345,42.0201521 C32.2053391,42.1534114 31.6896988,42.7505046 31.6896988,43.4677029 C31.6896988,43.634134 31.7231146,43.7919863 31.7743905,43.9406877 L23.724064,48.5550061 C23.5120465,48.3147961 23.22686,48.140358 22.8978872,48.076302 L22.8978872,38.8596757 C23.5811827,38.7258444 24.0973991,38.1293231 24.0973991,37.411553 C24.0973991,37.2451218 24.0634072,37.0878415 24.0121312,36.9385682 L32.0624578,32.3248217 C32.2744752,32.5650316 32.5596618,32.7400417 32.8886345,32.8035258 L32.8886345,42.0201521 Z M21.4961521,36.4432782 L13.4642619,31.8392545 C13.5178424,31.6876934 13.5524104,31.5258377 13.5524104,31.355975 C13.5524104,31.1855403 13.5178424,31.0242565 13.4642619,30.8721235 L21.4961521,26.2686718 C21.7686637,26.5775131 22.1638919,26.7765442 22.60982,26.7765442 C23.0563242,26.7765442 23.4515524,26.5775131 23.724064,26.2686718 L26.0746925,27.6161351 L31.7743905,30.8824182 C31.7231146,31.0322635 31.6896988,31.1895438 31.6896988,31.3565469 C31.6896988,31.5229781 31.7231146,31.6796864 31.7743905,31.8295317 L23.724064,36.4432782 C23.4515524,36.1344368 23.0563242,35.9354057 22.60982,35.9354057 C22.1638919,35.9354057 21.7686637,36.1344368 21.4961521,36.4432782 L21.4961521,36.4432782 Z M22.3217528,48.076302 C21.9939323,48.140358 21.7081696,48.3147961 21.4961521,48.5550061 L2.88758582,37.8896851 C2.94001405,37.7392679 2.97400598,37.5796999 2.97400598,37.411553 C2.97400598,36.6914951 2.45318045,36.093258 1.76527593,35.9634302 L1.76527593,26.7485197 C2.09597709,26.6867514 2.38404432,26.5134571 2.59779019,26.2726753 L10.6602156,30.8932849 C10.610668,31.0396986 10.5778283,31.1929754 10.5778283,31.355975 C10.5778283,32.170973 11.2438397,32.8326941 12.0654075,32.8326941 C12.5073026,32.8326941 12.8996501,32.6370946 13.1721617,32.3334006 L21.2080849,36.9385682 C21.1568089,37.0878415 21.122817,37.2451218 21.122817,37.411553 C21.122817,38.1293231 21.6384573,38.7258444 22.3217528,38.8596757 L22.3217528,48.076302 Z M1.76527593,14.627641 C2.09309642,14.5658727 2.37943524,14.395438 2.59260498,14.1575158 L4.94208123,15.5038353 L10.6187339,18.757536 C10.5939601,18.8650585 10.5778283,18.9754407 10.5778283,19.0898264 C10.5778283,19.8001615 11.0830982,20.3921074 11.7554471,20.5333737 L11.7554471,29.9124277 C11.4322357,29.9804871 11.1528105,30.1560692 10.9442498,30.3951352 L2.88758582,25.7779572 C2.94001405,25.6269681 2.97400598,25.4685439 2.97400598,25.2998251 C2.97400598,24.5791953 2.45318045,23.9815301 1.76527593,23.8511304 L1.76527593,14.627641 Z M21.2080849,25.7733818 L19.82421,26.5666465 L13.1721617,30.3791212 C12.9561113,30.1377675 12.6651634,29.9661889 12.3315816,29.9061365 L12.3315816,20.5396649 C13.0258236,20.4149845 13.5524104,19.8150316 13.5524104,19.0898264 C13.5524104,18.9674337 13.5328219,18.8507603 13.5051674,18.7369466 L21.5013373,14.1540842 C21.7127787,14.3908626 21.9962368,14.5630131 22.3217528,14.6264971 L22.3217528,23.8522743 C21.6384573,23.9855336 21.122817,24.5826268 21.122817,25.2998251 C21.122817,25.4668282 21.1568089,25.6241085 21.2080849,25.7733818 L21.2080849,25.7733818 Z M2.88989035,12.7088212 L21.2979619,2.15788588 C21.5468519,2.62858296 22.0377185,2.95229444 22.60982,2.95229444 C23.1819215,2.95229444 23.6733642,2.62858296 23.9216781,2.15788588 L31.7743905,6.65839053 C31.7231146,6.80823577 31.6896988,6.96551608 31.6896988,7.13194725 C31.6896988,7.29895034 31.7231146,7.45623066 31.7743905,7.60550397 L23.7292492,12.2163908 C23.4567376,11.9041179 23.0592048,11.7022272 22.60982,11.7022272 C21.7888284,11.7022272 21.122817,12.3633764 21.122817,13.1789463 C21.122817,13.3482371 21.1573851,13.508949 21.2103894,13.6599381 L13.259158,18.2176356 C12.9883748,17.8533172 12.556274,17.6136792 12.0654075,17.6136792 C11.5658989,17.6136792 11.1274606,17.8596084 10.8572535,18.2342215 L2.88528128,13.6645135 C2.93886178,13.5118086 2.97400598,13.3499529 2.97400598,13.1789463 C2.97400598,13.013659 2.94059018,12.8569506 2.88989035,12.7088212 L2.88989035,12.7088212 Z M44.0310746,14.6230655 C44.7051519,14.4829431 45.2115741,13.8898533 45.2115741,13.1789463 C45.2115741,12.3633764 44.5455627,11.7022272 43.723995,11.7022272 C43.278643,11.7022272 42.8834148,11.9006863 42.6109032,12.2089557 L34.5784369,7.60550397 C34.6297128,7.45623066 34.6637048,7.29895034 34.6637048,7.13194725 C34.6637048,6.31637734 33.9976933,5.65580003 33.1767018,5.65580003 C32.7307737,5.65580003 32.3349693,5.85483111 32.0624578,6.16310052 L24.0853003,1.59167676 C24.0887571,1.55278563 24.0973991,1.51561028 24.0973991,1.47614722 C24.0973991,0.66114924 23.4313877,0 22.60982,0 C21.7888284,0 21.122817,0.66114924 21.122817,1.47614722 C21.122817,1.51561028 21.131459,1.55278563 21.1343397,1.59167676 L2.6029754,12.2123873 C2.33046381,11.9024021 1.93408332,11.7022272 1.48700299,11.7022272 C0.665435279,11.7022272 0,12.3633764 0,13.1789463 C0,13.892713 0.510455114,14.4886624 1.18914149,14.6253532 L1.18914149,23.8534181 C0.510455114,23.9906809 0,24.5860584 0,25.2998251 C0,26.0141636 0.510455114,26.6095411 1.18914149,26.7468039 L1.18914149,35.965146 C0.510455114,36.1018369 0,36.6977863 0,37.411553 C0,38.2271229 0.665435279,38.8882721 1.48700299,38.8882721 C1.93120264,38.8882721 2.32585474,38.6909568 2.59779019,38.3844032 L21.2080849,49.0502961 C21.1568089,49.2001413 21.122817,49.3574216 21.122817,49.5238528 C21.122817,50.3394227 21.7888284,51 22.60982,51 C23.4313877,51 24.0973991,50.3394227 24.0973991,49.5238528 C24.0973991,49.3568497 24.0634072,49.1995694 24.0121312,49.0502961 L32.0624578,44.4365496 C32.3349693,44.7453909 32.7301976,44.9438501 33.1767018,44.9438501 C33.9976933,44.9438501 34.6637048,44.2832728 34.6637048,43.4677029 C34.6637048,43.3012717 34.6297128,43.1439914 34.5784369,42.9941461 L42.6160884,38.3878347 C42.8886,38.6926726 43.2815237,38.8882721 43.723995,38.8882721 C44.5455627,38.8882721 45.2115741,38.2271229 45.2115741,37.411553 C45.2115741,36.7006459 44.7051519,36.1081281 44.0310746,35.9674337 L44.0310746,25.2998251 L44.0310746,14.6230655 Z M63.9943058,28.6362838 L62.1800585,28.6362838 C62.015284,28.6362838 61.873555,28.6957644 61.753719,28.8141535 C61.633883,28.9331147 61.5745412,29.073809 61.5745412,29.2368086 L61.5745412,43.605366 C61.5745412,43.7683656 61.633883,43.90906 61.753719,44.0274492 C61.873555,44.1464103 62.015284,44.2053189 62.1800585,44.2053189 L63.9943058,44.2053189 C64.1585041,44.2053189 64.3008093,44.1464103 64.4200692,44.0274492 C64.539329,43.90906 64.599247,43.7683656 64.599247,43.605366 L64.599247,29.2368086 C64.599247,29.073809 64.539329,28.9331147 64.4200692,28.8141535 C64.3008093,28.6957644 64.1585041,28.6362838 63.9943058,28.6362838 M82.0753058,28.6362838 L80.2604823,28.6362838 C80.0957079,28.6362838 79.9539788,28.6957644 79.834719,28.8141535 C79.714883,28.9331147 79.6555412,29.073809 79.6555412,29.2368086 L79.6555412,38.4002456 L73.3820132,29.1475878 C73.3220953,29.073809 73.2247285,28.9697181 73.0904892,28.8364588 C72.9562499,28.7026275 72.7615164,28.6362838 72.5085934,28.6362838 L70.9397793,28.6362838 C70.7750049,28.6362838 70.633852,28.6957644 70.514016,28.8141535 C70.39418,28.9331147 70.3348382,29.073809 70.3348382,29.2368086 L70.3348382,43.605366 C70.3348382,43.7683656 70.39418,43.90906 70.514016,44.0274492 C70.633852,44.1464103 70.7750049,44.2053189 70.9397793,44.2053189 L72.7540267,44.2053189 C72.918225,44.2053189 73.0611064,44.1464103 73.1803662,44.0274492 C73.299626,43.90906 73.359544,43.7683656 73.359544,43.605366 L73.359544,34.4413572 L79.6330719,43.693443 C79.6924138,43.7683656 79.7897805,43.8718847 79.9245959,44.005144 C80.0588353,44.1384033 80.2529926,44.2053189 80.5064917,44.2053189 L82.0753058,44.2053189 C82.2395041,44.2053189 82.3812332,44.1464103 82.5010692,44.0274492 C82.620329,43.90906 82.6796708,43.7683656 82.6796708,43.605366 L82.6796708,29.2368086 C82.6796708,29.073809 82.620329,28.9331147 82.5010692,28.8141535 C82.3812332,28.6957644 82.2395041,28.6362838 82.0753058,28.6362838" id="logo"></path>
            </g>
        </g>
    </g>
</svg>