<?xml version="1.0" encoding="UTF-8"?>
<svg width="46px" height="51px" viewBox="0 0 46 51" version="1.1" xmlns="http://www.w3.org/2000/svg" xmlns:xlink="http://www.w3.org/1999/xlink">
    <title>logo</title>
    <g id="Mob" stroke="none" stroke-width="1" fill="none" fill-rule="evenodd">
        <g id="mob-menu-Produkt" transform="translate(-32.000000, -22.000000)" fill="#FFFFFF">
            <path d="M75.4549402,46.8045351 L75.4549402,47.1351097 L75.4549402,47.4651124 L75.4549402,47.7951151 L75.4549402,57.9622864 C74.7624266,58.0886825 74.236992,58.6880635 74.236992,59.411553 C74.236992,59.5814157 74.2721362,59.7426995 74.3251405,59.8936886 L66.2903696,64.4988561 C66.0783522,64.2586462 65.7925895,64.084208 65.464769,64.0201521 L65.464769,54.8035258 C66.1480644,54.6702665 66.6637048,54.0731732 66.6637048,53.3565469 C66.6637048,52.6387767 66.1480644,52.0416835 65.464769,51.9084242 L65.464769,42.5379491 C66.1480644,42.4046898 66.6637048,41.8075966 66.6637048,41.0898264 C66.6637048,40.9714372 66.6458446,40.8576235 66.6193424,40.7472413 L74.2905725,36.3508276 L74.6212736,36.1609474 C74.8367479,36.3988696 75.1248151,36.5681604 75.4549402,36.6282129 L75.4549402,46.8045351 Z M63.9760376,40.2256426 L56.0098267,35.6599381 C56.062831,35.5083771 56.0973991,35.3482371 56.0973991,35.1789463 C56.0973991,35.0153748 56.0639833,34.8603822 56.0144358,34.7133966 L64.0624578,30.100794 C64.3349693,30.4096353 64.7307737,30.6086664 65.1767018,30.6086664 C65.6226298,30.6086664 66.0184342,30.4090634 66.2909458,30.100794 L74.322836,34.7042457 C74.2709839,34.854091 74.236992,35.0119432 74.236992,35.1789463 C74.236992,35.3516687 74.2727123,35.5146683 74.3274451,35.669089 L66.3773659,40.2256426 C66.1065827,39.8561768 65.6716012,39.6136792 65.1767018,39.6136792 C64.6812261,39.6136792 64.2456685,39.8567488 63.9760376,40.2256426 L63.9760376,40.2256426 Z M64.8886345,51.9084242 C64.5596618,51.9730521 64.2744752,52.1469183 64.0624578,52.3871282 L57.4121379,48.5757973 L56.0121312,47.7733818 C56.0634072,47.6241085 56.0973991,47.4668282 56.0973991,47.2998251 C56.0973991,46.5826268 55.5811827,45.9855336 54.8978872,45.8522743 L54.8978872,36.6264971 C55.2239793,36.5630131 55.5068613,36.3908626 55.7188788,36.1540842 L58.0746925,37.5038353 L63.733485,40.7472413 C63.7069828,40.8576235 63.6896988,40.9714372 63.6896988,41.0898264 C63.6896988,41.8075966 64.2053391,42.4041179 64.8886345,42.5379491 L64.8886345,51.9084242 Z M64.8886345,64.0201521 C64.2053391,64.1534114 63.6896988,64.7505046 63.6896988,65.4677029 C63.6896988,65.634134 63.7231146,65.7919863 63.7743905,65.9406877 L55.724064,70.5550061 C55.5120465,70.3147961 55.22686,70.140358 54.8978872,70.076302 L54.8978872,60.8596757 C55.5811827,60.7258444 56.0973991,60.1293231 56.0973991,59.411553 C56.0973991,59.2451218 56.0634072,59.0878415 56.0121312,58.9385682 L64.0624578,54.3248217 C64.2744752,54.5650316 64.5596618,54.7400417 64.8886345,54.8035258 L64.8886345,64.0201521 Z M53.4961521,58.4432782 L45.4642619,53.8392545 C45.5178424,53.6876934 45.5524104,53.5258377 45.5524104,53.355975 C45.5524104,53.1855403 45.5178424,53.0242565 45.4642619,52.8721235 L53.4961521,48.2686718 C53.7686637,48.5775131 54.1638919,48.7765442 54.60982,48.7765442 C55.0563242,48.7765442 55.4515524,48.5775131 55.724064,48.2686718 L58.0746925,49.6161351 L63.7743905,52.8824182 C63.7231146,53.0322635 63.6896988,53.1895438 63.6896988,53.3565469 C63.6896988,53.5229781 63.7231146,53.6796864 63.7743905,53.8295317 L55.724064,58.4432782 C55.4515524,58.1344368 55.0563242,57.9354057 54.60982,57.9354057 C54.1638919,57.9354057 53.7686637,58.1344368 53.4961521,58.4432782 L53.4961521,58.4432782 Z M54.3217528,70.076302 C53.9939323,70.140358 53.7081696,70.3147961 53.4961521,70.5550061 L34.8875858,59.8896851 C34.9400141,59.7392679 34.974006,59.5796999 34.974006,59.411553 C34.974006,58.6914951 34.4531804,58.093258 33.7652759,57.9634302 L33.7652759,48.7485197 C34.0959771,48.6867514 34.3840443,48.5134571 34.5977902,48.2726753 L42.6602156,52.8932849 C42.610668,53.0396986 42.5778283,53.1929754 42.5778283,53.355975 C42.5778283,54.170973 43.2438397,54.8326941 44.0654075,54.8326941 C44.5073026,54.8326941 44.8996501,54.6370946 45.1721617,54.3334006 L53.2080849,58.9385682 C53.1568089,59.0878415 53.122817,59.2451218 53.122817,59.411553 C53.122817,60.1293231 53.6384573,60.7258444 54.3217528,60.8596757 L54.3217528,70.076302 Z M33.7652759,36.627641 C34.0930964,36.5658727 34.3794352,36.395438 34.592605,36.1575158 L36.9420812,37.5038353 L42.6187339,40.757536 C42.5939601,40.8650585 42.5778283,40.9754407 42.5778283,41.0898264 C42.5778283,41.8001615 43.0830982,42.3921074 43.7554471,42.5333737 L43.7554471,51.9124277 C43.4322357,51.9804871 43.1528105,52.1560692 42.9442498,52.3951352 L34.8875858,47.7779572 C34.9400141,47.6269681 34.974006,47.4685439 34.974006,47.2998251 C34.974006,46.5791953 34.4531804,45.9815301 33.7652759,45.8511304 L33.7652759,36.627641 Z M53.2080849,47.7733818 L51.82421,48.5666465 L45.1721617,52.3791212 C44.9561113,52.1377675 44.6651634,51.9661889 44.3315816,51.9061365 L44.3315816,42.5396649 C45.0258236,42.4149845 45.5524104,41.8150316 45.5524104,41.0898264 C45.5524104,40.9674337 45.5328219,40.8507603 45.5051674,40.7369466 L53.5013373,36.1540842 C53.7127787,36.3908626 53.9962368,36.5630131 54.3217528,36.6264971 L54.3217528,45.8522743 C53.6384573,45.9855336 53.122817,46.5826268 53.122817,47.2998251 C53.122817,47.4668282 53.1568089,47.6241085 53.2080849,47.7733818 L53.2080849,47.7733818 Z M34.8898904,34.7088212 L53.2979619,24.1578859 C53.5468519,24.628583 54.0377185,24.9522944 54.60982,24.9522944 C55.1819215,24.9522944 55.6733642,24.628583 55.9216781,24.1578859 L63.7743905,28.6583905 C63.7231146,28.8082358 63.6896988,28.9655161 63.6896988,29.1319472 C63.6896988,29.2989503 63.7231146,29.4562307 63.7743905,29.605504 L55.7292492,34.2163908 C55.4567376,33.9041179 55.0592048,33.7022272 54.60982,33.7022272 C53.7888284,33.7022272 53.122817,34.3633764 53.122817,35.1789463 C53.122817,35.3482371 53.1573851,35.508949 53.2103894,35.6599381 L45.259158,40.2176356 C44.9883748,39.8533172 44.556274,39.6136792 44.0654075,39.6136792 C43.5658989,39.6136792 43.1274606,39.8596084 42.8572535,40.2342215 L34.8852813,35.6645135 C34.9388618,35.5118086 34.974006,35.3499529 34.974006,35.1789463 C34.974006,35.013659 34.9405902,34.8569506 34.8898904,34.7088212 L34.8898904,34.7088212 Z M76.0310746,36.6230655 C76.7051519,36.4829431 77.2115741,35.8898533 77.2115741,35.1789463 C77.2115741,34.3633764 76.5455627,33.7022272 75.723995,33.7022272 C75.278643,33.7022272 74.8834148,33.9006863 74.6109032,34.2089557 L66.5784369,29.605504 C66.6297128,29.4562307 66.6637048,29.2989503 66.6637048,29.1319472 C66.6637048,28.3163773 65.9976933,27.6558 65.1767018,27.6558 C64.7307737,27.6558 64.3349693,27.8548311 64.0624578,28.1631005 L56.0853003,23.5916768 C56.0887571,23.5527856 56.0973991,23.5156103 56.0973991,23.4761472 C56.0973991,22.6611492 55.4313877,22 54.60982,22 C53.7888284,22 53.122817,22.6611492 53.122817,23.4761472 C53.122817,23.5156103 53.131459,23.5527856 53.1343397,23.5916768 L34.6029754,34.2123873 C34.3304638,33.9024021 33.9340833,33.7022272 33.487003,33.7022272 C32.6654353,33.7022272 32,34.3633764 32,35.1789463 C32,35.892713 32.5104551,36.4886624 33.1891415,36.6253532 L33.1891415,45.8534181 C32.5104551,45.9906809 32,46.5860584 32,47.2998251 C32,48.0141636 32.5104551,48.6095411 33.1891415,48.7468039 L33.1891415,57.965146 C32.5104551,58.1018369 32,58.6977863 32,59.411553 C32,60.2271229 32.6654353,60.8882721 33.487003,60.8882721 C33.9312026,60.8882721 34.3258547,60.6909568 34.5977902,60.3844032 L53.2080849,71.0502961 C53.1568089,71.2001413 53.122817,71.3574216 53.122817,71.5238528 C53.122817,72.3394227 53.7888284,73 54.60982,73 C55.4313877,73 56.0973991,72.3394227 56.0973991,71.5238528 C56.0973991,71.3568497 56.0634072,71.1995694 56.0121312,71.0502961 L64.0624578,66.4365496 C64.3349693,66.7453909 64.7301976,66.9438501 65.1767018,66.9438501 C65.9976933,66.9438501 66.6637048,66.2832728 66.6637048,65.4677029 C66.6637048,65.3012717 66.6297128,65.1439914 66.5784369,64.9941461 L74.6160884,60.3878347 C74.8886,60.6926726 75.2815237,60.8882721 75.723995,60.8882721 C76.5455627,60.8882721 77.2115741,60.2271229 77.2115741,59.411553 C77.2115741,58.7006459 76.7051519,58.1081281 76.0310746,57.9674337 L76.0310746,47.2998251 L76.0310746,36.6230655 Z" id="logo"></path>
        </g>
    </g>
</svg>